<svg xmlns="http://www.w3.org/2000/svg" width="1634" height="1022" viewBox="0 0 1634 1022"><defs><style type="text/css"/></defs><g transform="translate(1404.4988262820507 386.9872778655175) scale(1)"><g class="relationship"><g transform="translate(174.81060398534458 300.5100238053506) rotate(-90)" stroke-width="5" stroke="#000000"><path d="M 59 0 L 549.6351510531199 0"/><polygon points="-24.8621506177483,0 -27.62461179749811,9.20820393249937 0,0 -27.62461179749811,-9.20820393249937" fill="#000000" transform="translate(574.4973016708682 0) rotate(0)" stroke="none"/></g><g transform="translate(174.8106039853446 -3.807551721209336) rotate(90) translate(0 -13)"><g transform="translate(0 0)"><g transform="translate(-48.14453125 0)" fill="#ffffff" stroke="#000000" stroke-width="0"><rect x="0" y="0" width="96.2890625" height="26" rx="5" ry="5" stroke="none"/><text xml:space="preserve" x="5" y="17.5" stroke="none" text-anchor="left" font-family="sans-serif" font-size="16" font-weight="normal" fill="#000000">hasLocation</text></g></g></g></g><g class="relationship"><g transform="translate(174.81060398534458 -332.9872778655175) rotate(180)" stroke-width="5" stroke="#000000"><path d="M 59 0 L 1201.6688153292905 0"/><polygon points="-24.8621506177483,0 -27.62461179749811,9.20820393249937 0,0 -27.62461179749811,-9.20820393249937" fill="#000000" transform="translate(1226.5309659470388 0) rotate(0)" stroke="none"/></g><g transform="translate(-455.52380367930067 -332.98727786551746) rotate(360) translate(0 -13)"><g transform="translate(0 0)"><g transform="translate(-45.91015625 0)" fill="#ffffff" stroke="#000000" stroke-width="0"><rect x="0" y="0" width="91.8203125" height="26" rx="5" ry="5" stroke="none"/><text xml:space="preserve" x="5" y="17.5" stroke="none" text-anchor="left" font-family="sans-serif" font-size="16" font-weight="normal" fill="#000000">hasCountry</text></g></g></g></g><g class="relationship"><g transform="translate(-66 300) rotate(0.12134917366727768)" stroke-width="5" stroke="#000000"><path d="M 59 0 L 156.94899346837678 0"/><polygon points="-24.8621506177483,0 -27.62461179749811,9.20820393249937 0,0 -27.62461179749811,-9.20820393249937" fill="#000000" transform="translate(181.81114408612507 0) rotate(0)" stroke="none"/></g><g transform="translate(41.97425456470667 300.2286836180866) rotate(0.12134917366727768) translate(0 -13)"><g transform="translate(0 0)"><g transform="translate(-40.56640625 0)" fill="#ffffff" stroke="#000000" stroke-width="0"><rect x="0" y="0" width="81.1328125" height="26" rx="5" ry="5" stroke="none"/><text xml:space="preserve" x="5" y="17.5" stroke="none" text-anchor="left" font-family="sans-serif" font-size="16" font-weight="normal" fill="#000000">hasCircuit</text></g></g></g></g><g class="relationship"><g transform="translate(-66 300) rotate(90)" stroke-width="5" stroke="#000000"><path d="M 59 0 L 196.73397012301845 0"/><polygon points="-24.8621506177483,0 -27.62461179749811,9.20820393249937 0,0 -27.62461179749811,-9.20820393249937" fill="#000000" transform="translate(221.59612074076676 0) rotate(0)" stroke="none"/></g><g transform="translate(-65.99999999999999 427.86698506150924) rotate(270) translate(0 -13)"><g transform="translate(0 0)"><g transform="translate(-38.359375 0)" fill="#ffffff" stroke="#000000" stroke-width="0"><rect x="0" y="0" width="76.71875" height="26" rx="5" ry="5" stroke="none"/><text xml:space="preserve" x="5" y="17.5" stroke="none" text-anchor="left" font-family="sans-serif" font-size="16" font-weight="normal" fill="#000000">inSeason</text></g></g></g></g><g class="relationship"><g transform="translate(-66 300) rotate(179.3490069495494)" stroke-width="5" stroke="#000000"><path d="M 59 0 L 118.90715291933111 0"/><polygon points="-24.8621506177483,0 -27.62461179749811,9.20820393249937 0,0 -27.62461179749811,-9.20820393249937" fill="#000000" transform="translate(143.7693035370794 0) rotate(0)" stroke="none"/></g><g transform="translate(-154.94783481666013 301.01066631175087) rotate(359.3490069495494) translate(0 -13)"><g transform="translate(0 0)"><g transform="translate(-23.234375 0)" fill="#ffffff" stroke="#000000" stroke-width="0"><rect x="0" y="0" width="46.46875" height="26" rx="5" ry="5" stroke="none"/><text xml:space="preserve" x="5" y="17.5" stroke="none" text-anchor="left" font-family="sans-serif" font-size="16" font-weight="normal" fill="#000000">hasA</text></g></g></g></g><g class="relationship"><g transform="translate(-66 300) rotate(-143.2611321279171)" stroke-width="5" stroke="#000000"><path d="M 59 0 L 170.82305465306055 0"/><polygon points="-24.8621506177483,0 -27.62461179749811,9.20820393249937 0,0 -27.62461179749811,-9.20820393249937" fill="#000000" transform="translate(195.68520527080886 0) rotate(0)" stroke="none"/></g><g transform="translate(-158.08665610283833 231.26349674071645) rotate(36.73886787208288) translate(0 -13)"><g transform="translate(0 0)"><g transform="translate(-23.234375 0)" fill="#ffffff" stroke="#000000" stroke-width="0"><rect x="0" y="0" width="46.46875" height="26" rx="5" ry="5" stroke="none"/><text xml:space="preserve" x="5" y="17.5" stroke="none" text-anchor="left" font-family="sans-serif" font-size="16" font-weight="normal" fill="#000000">hasA</text></g></g></g></g><g class="relationship"><g stroke-width="5" stroke="#000000"><path d="M -783.1342620643372 148.39794236529673 L -783.1342620643372 148.39794236529673 A 40 40 0 0 0 -800.4561936592401 152.34311348175453 L -1035.1294747034754 265.08791486549313 L -1035.1294747034754 265.08791486549313"/><polygon points="-24.8621506177483,0 -27.62461179749811,9.20820393249937 0,0 -27.62461179749811,-9.20820393249937" fill="#000000" transform="translate(-1035.1294747034754 265.08791486549313) rotate(154.3388315923225) translate(24.8621506177483 0)" stroke="none"/></g><g transform="translate(-913.6869852250543 206.74292861539493) rotate(334.3388315923225) translate(0 -13)"><g transform="translate(0 0)"><g transform="translate(-39.23046875 0)" fill="#ffffff" stroke="#000000" stroke-width="0"><rect x="0" y="0" width="78.4609375" height="26" rx="5" ry="5" stroke="none"/><text xml:space="preserve" x="5" y="17.5" stroke="none" text-anchor="left" font-family="sans-serif" font-size="16" font-weight="normal" fill="#000000">hasDriver</text></g></g></g></g><g class="relationship"><g stroke-width="5" stroke="#000000"><path d="M -930.0857796626174 -62.188996042250835 L -930.0857796626174 -62.18899604225084 A 40 40 0 0 0 -937.3104165025544 -85.11879259010509 L -1062.6468106684322 -264.27196681850256 L -1062.6468106684322 -264.27196681850256"/><polygon points="-24.8621506177483,0 -27.62461179749811,9.20820393249937 0,0 -27.62461179749811,-9.20820393249937" fill="#000000" transform="translate(-1062.6468106684322 -264.27196681850256) rotate(-124.97681485516549) translate(24.8621506177483 0)" stroke="none"/></g><g transform="translate(-996.3662951655248 -169.5320086374405) rotate(55.02318514483451) translate(0 -13)"><g transform="translate(0 0)"><g transform="translate(-41.0234375 0)" fill="#ffffff" stroke="#000000" stroke-width="0"><rect x="0" y="0" width="82.046875" height="26" rx="5" ry="5" stroke="none"/><text xml:space="preserve" x="5" y="17.5" stroke="none" text-anchor="left" font-family="sans-serif" font-size="16" font-weight="normal" fill="#000000">hasNation</text></g></g></g></g><g class="relationship"><g transform="translate(-1110.7203619616942 301.40427577554493) rotate(-90)" stroke-width="5" stroke="#000000"><path d="M 59 0 L 550.5294030233142 0"/><polygon points="-24.8621506177483,0 -27.62461179749811,9.20820393249937 0,0 -27.62461179749811,-9.20820393249937" fill="#000000" transform="translate(575.3915536410625 0) rotate(0)" stroke="none"/></g><g transform="translate(-1110.7203619616942 -3.3604257361121768) rotate(90) translate(0 -13)"><g transform="translate(0 0)"><g transform="translate(-41.0234375 0)" fill="#ffffff" stroke="#000000" stroke-width="0"><rect x="0" y="0" width="82.046875" height="26" rx="5" ry="5" stroke="none"/><text xml:space="preserve" x="5" y="17.5" stroke="none" text-anchor="left" font-family="sans-serif" font-size="16" font-weight="normal" fill="#000000">hasNation</text></g></g></g></g><g class="relationship"><g transform="translate(-497.11628601131184 147.65522790030388) rotate(179.81255117703847)" stroke-width="5" stroke="#000000"><path d="M 59 0 L 143.15704036836308 0"/><polygon points="-24.8621506177483,0 -27.62461179749811,9.20820393249937 0,0 -27.62461179749811,-9.20820393249937" fill="#000000" transform="translate(168.0191909861114 0) rotate(0)" stroke="none"/></g><g transform="translate(-598.194265256034 147.98591571006466) rotate(359.8125511770385) translate(0 -13)"><g transform="translate(0 0)"><g transform="translate(-36.125 0)" fill="#ffffff" stroke="#000000" stroke-width="0"><rect x="0" y="0" width="72.25" height="26" rx="5" ry="5" stroke="none"/><text xml:space="preserve" x="5" y="17.5" stroke="none" text-anchor="left" font-family="sans-serif" font-size="16" font-weight="normal" fill="#000000">subclass</text></g></g></g></g><g class="relationship"><g transform="translate(-497.11628601131184 299.98488077284424) rotate(-146.26773534284126)" stroke-width="5" stroke="#000000"><path d="M 59 0 L 189.11360168817652 0"/><polygon points="-24.8621506177483,0 -27.62461179749811,9.20820393249937 0,0 -27.62461179749811,-9.20820393249937" fill="#000000" transform="translate(213.9757523059248 0) rotate(0)" stroke="none"/></g><g transform="translate(-600.2870753775251 231.0945472185477) rotate(33.73226465715874) translate(0 -13)"><g transform="translate(0 0)"><g transform="translate(-36.125 0)" fill="#ffffff" stroke="#000000" stroke-width="0"><rect x="0" y="0" width="72.25" height="26" rx="5" ry="5" stroke="none"/><text xml:space="preserve" x="5" y="17.5" stroke="none" text-anchor="left" font-family="sans-serif" font-size="16" font-weight="normal" fill="#000000">subclass</text></g></g></g></g><g class="relationship"><g transform="translate(-497.11628601131184 -3.188996042250835) rotate(146.26773534284123)" stroke-width="5" stroke="#000000"><path d="M 59 0 L 189.11360168817657 0"/><polygon points="-24.8621506177483,0 -27.62461179749811,9.20820393249937 0,0 -27.62461179749811,-9.20820393249937" fill="#000000" transform="translate(213.97575230592486 0) rotate(0)" stroke="none"/></g><g transform="translate(-600.2870753775251 65.70133751204577) rotate(326.2677353428412) translate(0 -13)"><g transform="translate(0 0)"><g transform="translate(-36.125 0)" fill="#ffffff" stroke="#000000" stroke-width="0"><rect x="0" y="0" width="72.25" height="26" rx="5" ry="5" stroke="none"/><text xml:space="preserve" x="5" y="17.5" stroke="none" text-anchor="left" font-family="sans-serif" font-size="16" font-weight="normal" fill="#000000">subclass</text></g></g></g></g><g class="relationship"><g transform="translate(-497.11628601131184 299.98488077284424) rotate(0.5818016622689055)" stroke-width="5" stroke="#000000"><path d="M 59 0 L 144.50969362158514 0"/><polygon points="-24.8621506177483,0 -27.62461179749811,9.20820393249937 0,0 -27.62461179749811,-9.20820393249937" fill="#000000" transform="translate(169.37184423933343 0) rotate(0)" stroke="none"/></g><g transform="translate(-395.36668517324216 301.01811781309675) rotate(0.5818016622689055) translate(0 -13)"><g transform="translate(0 0)"><g transform="translate(-37.01953125 0)" fill="#ffffff" stroke="#000000" stroke-width="0"><rect x="0" y="0" width="74.0390625" height="26" rx="5" ry="5" stroke="none"/><text xml:space="preserve" x="5" y="17.5" stroke="none" text-anchor="left" font-family="sans-serif" font-size="16" font-weight="normal" fill="#000000">pInQualif</text></g></g></g></g><g class="relationship"><g stroke-width="5" stroke="#000000"><path d="M -438.11628601131184 -3.188996042250835 L -106 -3.188996042250835 A 40 40 0 0 1 -66 36.81100395774916 L -66 216.13784938225172 L -66 216.13784938225172"/><polygon points="-24.8621506177483,0 -27.62461179749811,9.20820393249937 0,0 -27.62461179749811,-9.20820393249937" fill="#000000" transform="translate(-66 216.13784938225172) rotate(90) translate(24.8621506177483 0)" stroke="none"/></g><g transform="translate(-252.05814300565592 -3.188996042250835) rotate(360) translate(0 -13)"><g transform="translate(0 0)"><g transform="translate(-74.37890625 0)" fill="#ffffff" stroke="#000000" stroke-width="0"><rect x="0" y="0" width="148.7578125" height="26" rx="5" ry="5" stroke="none"/><text xml:space="preserve" x="5" y="17.5" stroke="none" text-anchor="left" font-family="sans-serif" font-size="16" font-weight="normal" fill="#000000">partecipatedInRace</text></g></g></g></g><g class="relationship"><g transform="translate(-497.11628601131184 147.65522790030388) rotate(0)" stroke-width="5" stroke="#000000"><path d="M 59 0 L 143.15704036836308 0"/><polygon points="-24.8621506177483,0 -27.62461179749811,9.20820393249937 0,0 -27.62461179749811,-9.20820393249937" fill="#000000" transform="translate(168.01919098611137 0) rotate(0)" stroke="none"/></g><g transform="translate(-396.03776582713033 147.65522790030388) rotate(0) translate(0 -13)"><g transform="translate(0 0)"><g transform="translate(-37.01953125 0)" fill="#ffffff" stroke="#000000" stroke-width="0"><rect x="0" y="0" width="74.0390625" height="26" rx="5" ry="5" stroke="none"/><text xml:space="preserve" x="5" y="17.5" stroke="none" text-anchor="left" font-family="sans-serif" font-size="16" font-weight="normal" fill="#000000">pInSprint</text></g></g></g></g><g class="relationship"><g transform="translate(-497.11628601131184 -3.188996042250835) rotate(-89.9998466837545)" stroke-width="5" stroke="#000000"><path d="M 59 0 L 143.1583917474902 0"/><polygon points="-24.8621506177483,0 -27.62461179749811,9.20820393249937 0,0 -27.62461179749811,-9.20820393249937" fill="#000000" transform="translate(168.0205423652385 0) rotate(0)" stroke="none"/></g><g transform="translate(-497.1160155361924 -104.26819191563406) rotate(-89.9998466837545) translate(0 -10)"><g transform="translate(0 0)"><g transform="translate(-40.69140625 0)" fill="#ffffff" stroke="#000000" stroke-width="0"><rect x="0" y="0" width="81.3828125" height="20" rx="2" ry="2" stroke="none"/><text xml:space="preserve" x="2" y="14.5" stroke="none" text-anchor="left" font-family="sans-serif" font-size="16" font-weight="normal" fill="#000000">hasPitStop</text></g></g></g></g><g class="relationship"><g stroke-width="5" stroke="#000000"><path d="M -724.1342620643372 89.39794236529673 L -724.1342620643372 36.81100395774917 A 40 40 0 0 0 -764.1342620643372 -3.1889960422508254 L -846.2236290448691 -3.188996042250835 L -846.2236290448691 -3.188996042250835"/><polygon points="-24.8621506177483,0 -27.62461179749811,9.20820393249937 0,0 -27.62461179749811,-9.20820393249937" fill="#000000" transform="translate(-846.2236290448691 -3.188996042250835) rotate(180) translate(24.8621506177483 0)" stroke="none"/></g><g transform="translate(-724.1342620643372 43.104473161522954) rotate(360) translate(0 -13)"><g transform="translate(0 0)"><g transform="translate(-59.24609375 0)" fill="#ffffff" stroke="#000000" stroke-width="0"><rect x="0" y="0" width="118.4921875" height="26" rx="5" ry="5" stroke="none"/><text xml:space="preserve" x="5" y="17.5" stroke="none" text-anchor="left" font-family="sans-serif" font-size="16" font-weight="normal" fill="#000000">hasConstructor</text></g></g></g></g><g class="relationship"><g transform="translate(-497.11628601131184 -3.188996042250835) rotate(-135)" stroke-width="5" stroke="#000000"><path d="M 59 0 L 237.19146819377838 0"/><polygon points="-24.8621506177483,0 -27.62461179749811,9.20820393249937 0,0 -27.62461179749811,-9.20820393249937" fill="#000000" transform="translate(262.0536188115267 0) rotate(0)" stroke="none"/></g><g transform="translate(-601.835783856022 -107.908493886961) rotate(45) translate(0 -13)"><g transform="translate(0 0)"><g transform="translate(-40.578125 0)" fill="#ffffff" stroke="#000000" stroke-width="0"><rect x="0" y="0" width="81.15625" height="26" rx="5" ry="5" stroke="none"/><text xml:space="preserve" x="5" y="17.5" stroke="none" text-anchor="left" font-family="sans-serif" font-size="16" font-weight="normal" fill="#000000">hasStatus</text></g></g></g></g><g class="relationship"><g transform="translate(-497.11628601131184 147.65522790030388) rotate(-120.99732005428835)" stroke-width="5" stroke="#000000"><path d="M 59 0 L 356.9535403660708 0"/><polygon points="-24.8621506177483,0 -27.62461179749811,9.20820393249937 0,0 -27.62461179749811,-9.20820393249937" fill="#000000" transform="translate(381.8156909838191 0) rotate(0)" stroke="none"/></g><g transform="translate(-604.2239028147941 -30.620668839680377) rotate(59.002679945711655) translate(0 -13)"><g transform="translate(0 0)"><g transform="translate(-40.578125 0)" fill="#ffffff" stroke="#000000" stroke-width="0"><rect x="0" y="0" width="81.15625" height="26" rx="5" ry="5" stroke="none"/><text xml:space="preserve" x="5" y="17.5" stroke="none" text-anchor="left" font-family="sans-serif" font-size="16" font-weight="normal" fill="#000000">hasStatus</text></g></g></g></g><g class="relationship"><g transform="translate(-497.11567853310834 -230.2095384066766) rotate(0.0003410657961960709)" stroke-width="5" stroke="#000000"><path d="M 59 0 L 143.15643289418182 0"/><polygon points="-24.8621506177483,0 -27.62461179749811,9.20820393249937 0,0 -27.62461179749811,-9.20820393249937" fill="#000000" transform="translate(168.0185835119301 0) rotate(0)" stroke="none"/></g><g transform="translate(-396.0374620878083 -230.20893671624384) rotate(0.0003410657961960709) translate(0 -10)"><g transform="translate(0 0)"><g transform="translate(-37.58203125 0)" fill="#ffffff" stroke="#000000" stroke-width="0"><rect x="0" y="0" width="75.1640625" height="20" rx="2" ry="2" stroke="none"/><text xml:space="preserve" x="2" y="14.5" stroke="none" text-anchor="left" font-family="sans-serif" font-size="16" font-weight="normal" fill="#000000">hasPitLap</text></g></g></g></g><g class="relationship"><g transform="translate(-1110.7203619616942 580.5961207407668) rotate(-90)" stroke-width="5" stroke="#000000"><path d="M 59 0 L 195.32969434747352 0"/><polygon points="-24.8621506177483,0 -27.62461179749811,9.20820393249937 0,0 -27.62461179749811,-9.20820393249937" fill="#000000" transform="translate(220.19184496522183 0) rotate(0)" stroke="none"/></g><g transform="translate(-1110.7203619616942 453.43127356703) rotate(90) translate(0 -13)"><g transform="translate(0 0)"><g transform="translate(-39.23046875 0)" fill="#ffffff" stroke="#000000" stroke-width="0"><rect x="0" y="0" width="78.4609375" height="26" rx="5" ry="5" stroke="none"/><text xml:space="preserve" x="5" y="17.5" stroke="none" text-anchor="left" font-family="sans-serif" font-size="16" font-weight="normal" fill="#000000">hasDriver</text></g></g></g></g><g class="relationship"><g transform="translate(-1110.7203619616942 580.5961207407668) rotate(0)" stroke-width="5" stroke="#000000"><path d="M 59 0 L 960.8582113439459 0"/><polygon points="-24.8621506177483,0 -27.62461179749811,9.20820393249937 0,0 -27.62461179749811,-9.20820393249937" fill="#000000" transform="translate(985.7203619616942 0) rotate(0)" stroke="none"/></g><g transform="translate(-600.7912562897212 580.5961207407668) rotate(0) translate(0 -13)"><g transform="translate(0 0)"><g transform="translate(-38.359375 0)" fill="#ffffff" stroke="#000000" stroke-width="0"><rect x="0" y="0" width="76.71875" height="26" rx="5" ry="5" stroke="none"/><text xml:space="preserve" x="5" y="17.5" stroke="none" text-anchor="left" font-family="sans-serif" font-size="16" font-weight="normal" fill="#000000">inSeason</text></g></g></g></g><g class="relationship"><g transform="translate(-497.11628601131184 -3.188996042250835) rotate(-45)" stroke-width="5" stroke="#000000"><path d="M 59 0 L 237.19146819377838 0"/><polygon points="-24.8621506177483,0 -27.62461179749811,9.20820393249937 0,0 -27.62461179749811,-9.20820393249937" fill="#000000" transform="translate(262.0536188115267 0) rotate(0)" stroke="none"/></g><g transform="translate(-392.3967881666017 -107.90849388696098) rotate(-45) translate(0 -13)"><g transform="translate(0 0)"><g transform="translate(-57.4765625 0)" fill="#ffffff" stroke="#000000" stroke-width="0"><rect x="0" y="0" width="114.953125" height="26" rx="5" ry="5" stroke="none"/><text xml:space="preserve" x="5" y="17.5" stroke="none" text-anchor="left" font-family="sans-serif" font-size="16" font-weight="normal" fill="#000000">hasFastestLap</text></g></g></g></g><g class="relationship"><g transform="translate(-497.11628601131184 147.65522790030388) rotate(-59.00267994571166)" stroke-width="5" stroke="#000000"><path d="M 59 0 L 356.95354036607074 0"/><polygon points="-24.8621506177483,0 -27.62461179749811,9.20820393249937 0,0 -27.62461179749811,-9.20820393249937" fill="#000000" transform="translate(381.815690983819 0) rotate(0)" stroke="none"/></g><g transform="translate(-390.0086692078296 -30.620668839680377) rotate(-59.00267994571166) translate(0 -13)"><g transform="translate(0 0)"><g transform="translate(-57.4765625 0)" fill="#ffffff" stroke="#000000" stroke-width="0"><rect x="0" y="0" width="114.953125" height="26" rx="5" ry="5" stroke="none"/><text xml:space="preserve" x="5" y="17.5" stroke="none" text-anchor="left" font-family="sans-serif" font-size="16" font-weight="normal" fill="#000000">hasFastestLap</text></g></g></g></g><g class="relationship"><g transform="translate(-724.1354769974232 474.44654400454215) rotate(0)" stroke-width="5" stroke="#000000"><path d="M 59 0 L 143.15704036836308 0"/><polygon points="-24.8621506177483,0 -27.62461179749811,9.20820393249937 0,0 -27.62461179749811,-9.20820393249937" fill="#000000" transform="translate(168.01919098611137 0) rotate(0)" stroke="none"/></g><g transform="translate(-623.0569568132416 474.44654400454215) rotate(0) translate(0 -13)"><g transform="translate(0 0)"><g transform="translate(-37.90234375 0)" fill="#ffffff" stroke="#000000" stroke-width="0"><rect x="0" y="0" width="75.8046875" height="26" rx="5" ry="5" stroke="none"/><text xml:space="preserve" x="5" y="17.5" stroke="none" text-anchor="left" font-family="sans-serif" font-size="16" font-weight="normal" fill="#000000">subClass</text></g></g></g></g><g class="relationship"><g transform="translate(-724.1354769974232 311.42224318491947) rotate(35.682430467197996)" stroke-width="5" stroke="#000000"><path d="M 59 0 L 195.6278057916285 0"/><polygon points="-24.8621506177483,0 -27.62461179749811,9.20820393249937 0,0 -27.62461179749811,-9.20820393249937" fill="#000000" transform="translate(220.48995640937682 0) rotate(0)" stroke="none"/></g><g transform="translate(-620.7231769348139 385.6834448068004) rotate(35.682430467197996) translate(0 -13)"><g transform="translate(0 0)"><g transform="translate(-37.90234375 0)" fill="#ffffff" stroke="#000000" stroke-width="0"><rect x="0" y="0" width="75.8046875" height="26" rx="5" ry="5" stroke="none"/><text xml:space="preserve" x="5" y="17.5" stroke="none" text-anchor="left" font-family="sans-serif" font-size="16" font-weight="normal" fill="#000000">subClass</text></g></g></g></g><g class="relationship"><g stroke-width="5" stroke="#000000"><path d="M -438.11628601131184 474.44654400454215 L -438.11628601131184 474.44654400454215 A 40 40 0 0 0 -420.7905206202781 470.4995307548082 L -141.58702512676228 336.32439866976614 L -141.58702512676228 336.32439866976614"/><polygon points="-24.8621506177483,0 -27.62461179749811,9.20820393249937 0,0 -27.62461179749811,-9.20820393249937" fill="#000000" transform="translate(-141.58702512676228 336.32439866976614) rotate(-25.667260960493866) translate(24.8621506177483 0)" stroke="none"/></g><g transform="translate(-285.2954202043627 405.3854713371542) rotate(-25.667260960493866) translate(0 -13)"><g transform="translate(0 0)"><g transform="translate(-36.57421875 0)" fill="#ffffff" stroke="#000000" stroke-width="0"><rect x="0" y="0" width="73.1484375" height="26" rx="5" ry="5" stroke="none"/><text xml:space="preserve" x="5" y="17.5" stroke="none" text-anchor="left" font-family="sans-serif" font-size="16" font-weight="normal" fill="#000000">hasRace</text></g></g></g></g><g class="relationship"><g stroke-width="5" stroke="#000000"><path d="M -783.1354769974232 474.44654400454215 L -783.1354769974232 474.44654400454215 A 40 40 0 0 0 -802.2828143470853 469.56604674046133 L -1037.0904362601923 341.5476979942 L -1037.0904362601923 341.5476979942"/><polygon points="-24.8621506177483,0 -27.62461179749811,9.20820393249937 0,0 -27.62461179749811,-9.20820393249937" fill="#000000" transform="translate(-1037.0904362601923 341.5476979942) rotate(-151.40054974846043) translate(24.8621506177483 0)" stroke="none"/></g><g transform="translate(-915.210790520753 407.9971209993711) rotate(28.59945025153955) translate(0 -13)"><g transform="translate(0 0)"><g transform="translate(-39.23046875 0)" fill="#ffffff" stroke="#000000" stroke-width="0"><rect x="0" y="0" width="78.4609375" height="26" rx="5" ry="5" stroke="none"/><text xml:space="preserve" x="5" y="17.5" stroke="none" text-anchor="left" font-family="sans-serif" font-size="16" font-weight="normal" fill="#000000">hasDriver</text></g></g></g></g><g class="relationship"><g stroke-width="5" stroke="#000000"><path d="M -783.1354769974232 311.42224318491947 L -783.1354769974232 311.42224318491947 A 40 40 0 0 1 -820.535096468855 285.60915487817016 L -900.3421565321153 75.22131698674147 L -900.3421565321153 75.22131698674147"/><polygon points="-24.8621506177483,0 -27.62461179749811,9.20820393249937 0,0 -27.62461179749811,-9.20820393249937" fill="#000000" transform="translate(-900.3421565321153 75.22131698674147) rotate(-110.77339191623406) translate(24.8621506177483 0)" stroke="none"/></g><g transform="translate(-855.5427477520708 193.32178008583048) rotate(69.22660808376594) translate(0 -13)"><g transform="translate(0 0)"><g transform="translate(-59.24609375 0)" fill="#ffffff" stroke="#000000" stroke-width="0"><rect x="0" y="0" width="118.4921875" height="26" rx="5" ry="5" stroke="none"/><text xml:space="preserve" x="5" y="17.5" stroke="none" text-anchor="left" font-family="sans-serif" font-size="16" font-weight="normal" fill="#000000">hasConstructor</text></g></g></g></g><g class="relationship"><g transform="translate(-1110.7203619616942 301.40427577554493) rotate(-179.66083529044676)" stroke-width="5" stroke="#000000"><path d="M 59 0 L 155.92051479825335 0"/><polygon points="-24.8621506177483,0 -27.62461179749811,9.20820393249937 0,0 -27.62461179749811,-9.20820393249937" fill="#000000" transform="translate(180.78266541600163 0) rotate(0)" stroke="none"/></g><g transform="translate(-1218.1787366107956 300.76816410301586) rotate(0.33916470955325817) translate(0 -13)"><g transform="translate(0 0)"><g transform="translate(-37.90234375 0)" fill="#ffffff" stroke="#000000" stroke-width="0"><rect x="0" y="0" width="75.8046875" height="26" rx="5" ry="5" stroke="none"/><text xml:space="preserve" x="5" y="17.5" stroke="none" text-anchor="left" font-family="sans-serif" font-size="16" font-weight="normal" fill="#000000">subClass</text></g></g></g></g><g class="relationship"><g transform="translate(-66 -112.37267427474218) rotate(-150.00000000000003)" stroke-width="5" stroke="#000000"><path d="M 59 0 L 151.8088748894919 0"/><polygon points="-24.8621506177483,0 -27.62461179749811,9.20820393249937 0,0 -27.62461179749811,-9.20820393249937" fill="#000000" transform="translate(176.6710255072402 0) rotate(0)" stroke="none"/></g><g transform="translate(-157.28292049875773 -165.07489299711514) rotate(29.999999999999993) translate(0 -13)"><g transform="translate(0 0)"><g transform="translate(-37.90234375 0)" fill="#ffffff" stroke="#000000" stroke-width="0"><rect x="0" y="0" width="75.8046875" height="26" rx="5" ry="5" stroke="none"/><text xml:space="preserve" x="5" y="17.5" stroke="none" text-anchor="left" font-family="sans-serif" font-size="16" font-weight="normal" fill="#000000">subClass</text></g></g></g></g><g class="relationship"><g transform="translate(-66 -230.2069720952763) rotate(-179.9996589342038)" stroke-width="5" stroke="#000000"><path d="M 59 0 L 120.2349444110682 0"/><polygon points="-24.8621506177483,0 -27.62461179749811,9.20820393249937 0,0 -27.62461179749811,-9.20820393249937" fill="#000000" transform="translate(145.09709502881648 0) rotate(0)" stroke="none"/></g><g transform="translate(-155.6174722039463 -230.20750556309488) rotate(0.00034106579618534426) translate(0 -8)"><g transform="translate(0 0)"><g transform="translate(-29.78955078125 0)" fill="#ffffff" stroke="#000000" stroke-width="0"><rect x="0" y="0" width="59.5791015625" height="16" rx="1" ry="1" stroke="none"/><text xml:space="preserve" x="1" y="12" stroke="none" text-anchor="left" font-family="sans-serif" font-size="14" font-weight="normal" fill="#000000">subClass</text></g></g></g></g><g class="relationship"><g transform="translate(-497.11628601131184 -3.188996042250835) rotate(-14.211801153024055)" stroke-width="5" stroke="#000000"><path d="M 59 0 L 360.8651002412062 0"/><polygon points="-24.8621506177483,0 -27.62461179749811,9.20820393249937 0,0 -27.62461179749811,-9.20820393249937" fill="#000000" transform="translate(385.7272508589545 0) rotate(0)" stroke="none"/></g><g transform="translate(-293.6087628134995 -54.728918452275956) rotate(-14.211801153024055) translate(0 -13)"><g transform="translate(0 0)"><g transform="translate(-31.24609375 0)" fill="#ffffff" stroke="#000000" stroke-width="0"><rect x="0" y="0" width="62.4921875" height="26" rx="5" ry="5" stroke="none"/><text xml:space="preserve" x="5" y="17.5" stroke="none" text-anchor="left" font-family="sans-serif" font-size="16" font-weight="normal" fill="#000000">hasLap</text></g></g></g></g><g class="node"><g fill="#ffffff" stroke="#000000" stroke-width="4"><circle cx="174.81060398534458" cy="300.5100238053506" r="52"/></g><g transform="translate(174.81060398534458 300.5100238053506)"><g transform="scale(0.58203166796875) translate(0 0)"><g transform="translate(0 0)"><g font-family="sans-serif" font-size="50" font-weight="normal" fill="#000000" text-anchor="middle"><text xml:space="preserve" x="0" y="13" stroke="none">Circuit</text></g></g></g></g></g><g class="node"><g fill="#ffffff" stroke="#000000" stroke-width="4"><circle cx="174.81060398534458" cy="-332.9872778655175" r="52"/></g><g transform="translate(174.81060398534458 -332.9872778655175)"><g transform="scale(0.45312554687499995) translate(0 0)"><g transform="translate(0 0)"><g font-family="sans-serif" font-size="50" font-weight="normal" fill="#000000" text-anchor="middle"><text xml:space="preserve" x="0" y="13" stroke="none">Location</text></g></g></g></g></g><g class="node"><g fill="#ffffff" stroke="#000000" stroke-width="4"><circle cx="-1110.7203619616942" cy="-332.9872778655175" r="52"/></g><g transform="translate(-1110.7203619616942 -332.9872778655175)"><g transform="scale(0.33316222956479213) translate(0 -59)"><g transform="translate(0 0)"><g fill="#000000" font-family="sans-serif" font-size="50" font-weight="normal" text-anchor="middle"><text xml:space="preserve" x="0" y="43" stroke="none">Country</text></g></g><g transform="translate(0 64)"><g transform="translate(-121.501953125 0)"><g fill="#ffffff" stroke="#000000" stroke-width="4"><rect x="0" y="0" width="243.00390625" height="54" rx="27" ry="27"/><text xml:space="preserve" x="27" y="37.5" stroke="none" font-family="sans-serif" font-size="40" font-weight="normal" fill="#000000">eulersharp</text></g></g></g></g></g></g><g class="node"><g fill="#ffffff" stroke="#000000" stroke-width="4"><circle cx="-66" cy="300" r="52"/></g><g transform="translate(-66 300)"><g transform="scale(0.6835940664062501) translate(0 0)"><g transform="translate(0 0)"><g font-family="sans-serif" font-size="50" font-weight="normal" fill="#000000" text-anchor="middle"><text xml:space="preserve" x="0" y="13" stroke="none">Race</text></g></g></g></g></g><g class="node"><g fill="#ffffff" stroke="#000000" stroke-width="4"><circle cx="-1110.7203619616942" cy="301.40427577554493" r="52"/></g><g transform="translate(-1110.7203619616942 301.40427577554493)"><g transform="scale(0.6132816367187499) translate(0 0)"><g transform="translate(0 0)"><g font-family="sans-serif" font-size="50" font-weight="normal" fill="#000000" text-anchor="middle"><text xml:space="preserve" x="0" y="13" stroke="none">Driver</text></g></g></g></g></g><g class="node"><g fill="#ffffff" stroke="#000000" stroke-width="4"><circle cx="-930.0857796626174" cy="-3.188996042250835" r="52"/></g><g transform="translate(-930.0857796626174 -3.188996042250835)"><g transform="scale(0.37304750195312497) translate(0 0)"><g transform="translate(0 0)"><g font-family="sans-serif" font-size="50" font-weight="normal" fill="#000000" text-anchor="middle"><text xml:space="preserve" x="0" y="13" stroke="none">Contructor</text></g></g></g></g></g><g class="node"><g fill="#ffffff" stroke="#000000" stroke-width="4"><circle cx="-66" cy="580.5961207407668" r="52"/></g><g transform="translate(-66 580.5961207407668)"><g transform="scale(0.5000005) translate(0 0)"><g transform="translate(0 0)"><g font-family="sans-serif" font-size="50" font-weight="normal" fill="#000000" text-anchor="middle"><text xml:space="preserve" x="0" y="13" stroke="none">Season</text></g></g></g></g></g><g class="node"><g fill="#ffffff" stroke="#000000" stroke-width="4"><circle cx="-268.7562154859891" cy="302.3038096083189" r="52"/></g><g transform="translate(-268.7562154859891 302.3038096083189)"><g transform="scale(0.39062560937499996) translate(0 0)"><g transform="translate(0 0)"><g font-family="sans-serif" font-size="50" font-weight="normal" fill="#000000" text-anchor="middle"><text xml:space="preserve" x="0" y="13" stroke="none">Qualifying</text></g></g></g></g></g><g class="node"><g fill="#ffffff" stroke="#000000" stroke-width="4"><circle cx="-270.0970950252005" cy="147.65522790030388" r="52"/></g><g transform="translate(-270.0970950252005 147.65522790030388)"><g transform="scale(0.6250003749999999) translate(0 0)"><g transform="translate(0 0)"><g font-family="sans-serif" font-size="50" font-weight="normal" fill="#000000" text-anchor="middle"><text xml:space="preserve" x="0" y="13" stroke="none">Sprint</text></g></g></g></g></g><g class="node"><g fill="#ffffff" stroke="#000000" stroke-width="4"><circle cx="-724.1342620643372" cy="148.39794236529673" r="52"/></g><g transform="translate(-724.1342620643372 148.39794236529673)"><g transform="scale(0.30078194921875) translate(0 0)"><g transform="translate(0 0)"><g font-family="sans-serif" font-size="50" font-weight="normal" fill="#000000" text-anchor="middle"><text xml:space="preserve" x="0" y="13" stroke="none">Partecipation</text></g></g></g></g></g><g class="node"><g fill="#ffffff" stroke="#000000" stroke-width="4"><circle cx="-497.11567853310834" cy="-230.2095384066766" r="52"/></g><g transform="translate(-497.11567853310834 -230.2095384066766)"><g transform="scale(0.56640668359375) translate(0 0)"><g transform="translate(0 0)"><g font-family="sans-serif" font-size="50" font-weight="normal" fill="#000000" text-anchor="middle"><text xml:space="preserve" x="0" y="-17" stroke="none">Pit</text><text xml:space="preserve" x="0" y="43" stroke="none" text-anchor="middle">Stop</text></g></g></g></g></g><g class="node"><g fill="#ffffff" stroke="#000000" stroke-width="4"><circle cx="-270.0970950252004" cy="-230.20818702836226" r="52"/></g><g transform="translate(-270.0970950252004 -230.20818702836226)"><g transform="scale(0.875000125) translate(0 0)"><g transform="translate(0 0)"><g font-family="sans-serif" font-size="50" font-weight="normal" fill="#000000" text-anchor="middle"><text xml:space="preserve" x="0" y="13" stroke="none">Lap</text></g></g></g></g></g><g class="node"><g fill="#ffffff" stroke="#000000" stroke-width="4"><circle cx="-497.11628601131184" cy="147.65522790030388" r="52"/></g><g transform="translate(-497.11628601131184 147.65522790030388)"><g transform="scale(0.306641318359375) translate(0 0)"><g transform="translate(0 0)"><g font-family="sans-serif" font-size="50" font-weight="normal" fill="#000000" text-anchor="middle"><text xml:space="preserve" x="0" y="-47" stroke="none">Sprint</text><text xml:space="preserve" x="0" y="13" stroke="none" text-anchor="middle">partecipation</text></g></g></g></g></g><g class="node"><g fill="#ffffff" stroke="#000000" stroke-width="4"><circle cx="-497.11628601131184" cy="299.98488077284424" r="52"/></g><g transform="translate(-497.11628601131184 299.98488077284424)"><g transform="scale(0.306641318359375) translate(0 0)"><g transform="translate(0 0)"><g font-family="sans-serif" font-size="50" font-weight="normal" fill="#000000" text-anchor="middle"><text xml:space="preserve" x="0" y="-47" stroke="none">Qualif.</text><text xml:space="preserve" x="0" y="13" stroke="none" text-anchor="middle">partecipation</text></g></g></g></g></g><g class="node"><g fill="#ffffff" stroke="#000000" stroke-width="4"><circle cx="-497.11628601131184" cy="-3.188996042250835" r="52"/></g><g transform="translate(-497.11628601131184 -3.188996042250835)"><g transform="scale(0.306641318359375) translate(0 0)"><g transform="translate(0 0)"><g font-family="sans-serif" font-size="50" font-weight="normal" fill="#000000" text-anchor="middle"><text xml:space="preserve" x="0" y="-47" stroke="none">Race</text><text xml:space="preserve" x="0" y="13" stroke="none" text-anchor="middle">partecipation</text></g></g></g></g></g><g class="node"><g fill="#ffffff" stroke="#000000" stroke-width="4"><circle cx="-724.1354769974232" cy="-230.20818702836235" r="52"/></g><g transform="translate(-724.1354769974232 -230.20818702836235)"><g transform="scale(0.58203166796875) translate(0 0)"><g transform="translate(0 0)"><g font-family="sans-serif" font-size="50" font-weight="normal" fill="#000000" text-anchor="middle"><text xml:space="preserve" x="0" y="13" stroke="none">Status</text></g></g></g></g></g><g class="node"><g fill="#ffffff" stroke="#000000" stroke-width="4"><circle cx="-1110.7203619616942" cy="580.5961207407668" r="52"/></g><g transform="translate(-1110.7203619616942 580.5961207407668)"><g transform="scale(0.57421917578125) translate(0 0)"><g transform="translate(0 0)"><g font-family="sans-serif" font-size="50" font-weight="normal" fill="#000000" text-anchor="middle"><text xml:space="preserve" x="0" y="13" stroke="none">Rating</text></g></g></g></g></g><g class="node"><g fill="#ffffff" stroke="#000000" stroke-width="4"><circle cx="-497.11628601131184" cy="474.44654400454215" r="52"/></g><g transform="translate(-497.11628601131184 474.44654400454215)"><g transform="scale(0.43359431640625) translate(0 0)"><g transform="translate(0 0)"><g font-family="sans-serif" font-size="50" font-weight="normal" fill="#000000" text-anchor="middle"><text xml:space="preserve" x="0" y="13" stroke="none">Standing</text></g></g></g></g></g><g class="node"><g fill="#ffffff" stroke="#000000" stroke-width="4"><circle cx="-724.1354769974232" cy="474.44654400454215" r="52"/></g><g transform="translate(-724.1354769974232 474.44654400454215)"><g transform="scale(0.3984381015624999) translate(0 0)"><g transform="translate(0 0)"><g font-family="sans-serif" font-size="50" font-weight="normal" fill="#000000" text-anchor="middle"><text xml:space="preserve" x="0" y="-47" stroke="none">Driver</text><text xml:space="preserve" x="0" y="13" stroke="none" text-anchor="middle">Standing</text></g></g></g></g></g><g class="node"><g fill="#ffffff" stroke="#000000" stroke-width="4"><circle cx="-724.1354769974232" cy="311.42224318491947" r="52"/></g><g transform="translate(-724.1354769974232 311.42224318491947)"><g transform="scale(0.3359381640625) translate(0 0)"><g transform="translate(0 0)"><g font-family="sans-serif" font-size="50" font-weight="normal" fill="#000000" text-anchor="middle"><text xml:space="preserve" x="0" y="13" stroke="none">Constructor</text><text xml:space="preserve" x="0" y="73" stroke="none" text-anchor="middle">Standing</text></g></g></g></g></g><g class="node"><g fill="#ffffff" stroke="#000000" stroke-width="4"><circle cx="-1350.4988262820507" cy="299.98488077284424" r="52"/></g><g transform="translate(-1350.4988262820507 299.98488077284424)"><g transform="scale(0.5312504687499999) translate(0 0)"><g transform="translate(0 0)"><g font-family="sans-serif" font-size="50" font-weight="normal" fill="#000000" text-anchor="middle"><text xml:space="preserve" x="0" y="13" stroke="none">Person</text></g></g></g></g></g><g class="node"><g fill="#ffffff" stroke="#000000" stroke-width="4"><circle cx="-66" cy="-112.37267427474218" r="52"/></g><g transform="translate(-66 -112.37267427474218)"><g transform="scale(0.5351567148437499) translate(0 0)"><g transform="translate(0 0)"><g font-family="sans-serif" font-size="50" font-weight="normal" fill="#000000" text-anchor="middle"><text xml:space="preserve" x="0" y="-17" stroke="none">Race</text><text xml:space="preserve" x="0" y="43" stroke="none" text-anchor="middle">Lap</text></g></g></g></g></g><g class="node"><g fill="#ffffff" stroke="#000000" stroke-width="4"><circle cx="-66" cy="-230.2069720952763" r="52"/></g><g transform="translate(-66 -230.2069720952763)"><g transform="scale(0.5039067460937499) translate(0 0)"><g transform="translate(0 0)"><g font-family="sans-serif" font-size="50" font-weight="normal" fill="#000000" text-anchor="middle"><text xml:space="preserve" x="0" y="-17" stroke="none">Sprint</text><text xml:space="preserve" x="0" y="43" stroke="none" text-anchor="middle">Lap</text></g></g></g></g></g></g></svg>