<svg xmlns="http://www.w3.org/2000/svg" width="1522" height="948" viewBox="0 0 1522 948"><defs><style type="text/css"/></defs><g transform="translate(1327.6457412532818 312.7385066506161) scale(1)"><g class="relationship"><g transform="translate(-66 -30) rotate(-90)" stroke-width="5" stroke="#000000"><path d="M 59 0 L 144.87635603286782 0"/><polygon points="-24.8621506177483,0 -27.62461179749811,9.20820393249937 0,0 -27.62461179749811,-9.20820393249937" fill="#000000" transform="translate(169.7385066506161 0) rotate(0)" stroke="none"/></g><g transform="translate(-66 -131.9381780164339) rotate(90) translate(0 -13)"><g transform="translate(0 0)"><g transform="translate(-48.14453125 0)" fill="#ffffff" stroke="#000000" stroke-width="0"><rect x="0" y="0" width="96.2890625" height="26" rx="5" ry="5" stroke="none"/><text xml:space="preserve" x="5" y="17.5" stroke="none" text-anchor="left" font-family="sans-serif" font-size="16" font-weight="normal" fill="#000000">hasLocation</text></g></g></g></g><g class="relationship"><g transform="translate(-66 -258.7385066506161) rotate(180)" stroke-width="5" stroke="#000000"><path d="M 59 0 L 960.8582113439459 0"/><polygon points="-24.8621506177483,0 -27.62461179749811,9.20820393249937 0,0 -27.62461179749811,-9.20820393249937" fill="#000000" transform="translate(985.7203619616942 0) rotate(0)" stroke="none"/></g><g transform="translate(-575.9291056719729 -258.73850665061605) rotate(360) translate(0 -13)"><g transform="translate(0 0)"><g transform="translate(-45.91015625 0)" fill="#ffffff" stroke="#000000" stroke-width="0"><rect x="0" y="0" width="91.8203125" height="26" rx="5" ry="5" stroke="none"/><text xml:space="preserve" x="5" y="17.5" stroke="none" text-anchor="left" font-family="sans-serif" font-size="16" font-weight="normal" fill="#000000">hasCountry</text></g></g></g></g><g class="relationship"><g transform="translate(-66 -30) rotate(0)" stroke-width="5" stroke="#000000"><path d="M 59 0 L 167.87635603286782 0"/><polygon points="-24.8621506177483,0 -27.62461179749811,9.20820393249937 0,0 -27.62461179749811,-9.20820393249937" fill="#000000" transform="translate(192.7385066506161 0) rotate(0)" stroke="none"/></g><g transform="translate(47.43817801643391 -30) rotate(0) translate(0 -13)"><g transform="translate(0 0)"><g transform="translate(-39.23828125 0)" fill="#ffffff" stroke="#000000" stroke-width="0"><rect x="0" y="0" width="78.4765625" height="26" rx="5" ry="5" stroke="none"/><text xml:space="preserve" x="5" y="17.5" stroke="none" text-anchor="left" font-family="sans-serif" font-size="16" font-weight="normal" fill="#000000">hasName</text></g></g></g></g><g class="relationship"><g transform="translate(-66 300) rotate(-90)" stroke-width="5" stroke="#000000"><path d="M 59 0 L 246.1378493822517 0"/><polygon points="-24.8621506177483,0 -27.62461179749811,9.20820393249937 0,0 -27.62461179749811,-9.20820393249937" fill="#000000" transform="translate(271 0) rotate(0)" stroke="none"/></g><g transform="translate(-65.99999999999999 147.43107530887414) rotate(90) translate(0 -13)"><g transform="translate(0 0)"><g transform="translate(-40.56640625 0)" fill="#ffffff" stroke="#000000" stroke-width="0"><rect x="0" y="0" width="81.1328125" height="26" rx="5" ry="5" stroke="none"/><text xml:space="preserve" x="5" y="17.5" stroke="none" text-anchor="left" font-family="sans-serif" font-size="16" font-weight="normal" fill="#000000">hasCircuit</text></g></g></g></g><g class="relationship"><g transform="translate(-66 300) rotate(90)" stroke-width="5" stroke="#000000"><path d="M 59 0 L 196.73397012301845 0"/><polygon points="-24.8621506177483,0 -27.62461179749811,9.20820393249937 0,0 -27.62461179749811,-9.20820393249937" fill="#000000" transform="translate(221.59612074076676 0) rotate(0)" stroke="none"/></g><g transform="translate(-65.99999999999999 427.86698506150924) rotate(270) translate(0 -13)"><g transform="translate(0 0)"><g transform="translate(-38.359375 0)" fill="#ffffff" stroke="#000000" stroke-width="0"><rect x="0" y="0" width="76.71875" height="26" rx="5" ry="5" stroke="none"/><text xml:space="preserve" x="5" y="17.5" stroke="none" text-anchor="left" font-family="sans-serif" font-size="16" font-weight="normal" fill="#000000">inSeason</text></g></g></g></g><g class="relationship"><g transform="translate(-66 300) rotate(147.9451139016776)" stroke-width="5" stroke="#000000"><path d="M 59 0 L 156.94899346837673 0"/><polygon points="-24.8621506177483,0 -27.62461179749811,9.20820393249937 0,0 -27.62461179749811,-9.20820393249937" fill="#000000" transform="translate(181.81114408612504 0) rotate(0)" stroke="none"/></g><g transform="translate(-157.51271301785897 357.3054561199214) rotate(327.9451139016776) translate(0 -13)"><g transform="translate(0 0)"><g transform="translate(-23.234375 0)" fill="#ffffff" stroke="#000000" stroke-width="0"><rect x="0" y="0" width="46.46875" height="26" rx="5" ry="5" stroke="none"/><text xml:space="preserve" x="5" y="17.5" stroke="none" text-anchor="left" font-family="sans-serif" font-size="16" font-weight="normal" fill="#000000">hasA</text></g></g></g></g><g class="relationship"><g transform="translate(-66 300) rotate(180)" stroke-width="5" stroke="#000000"><path d="M 59 0 L 120.23494440745218 0"/><polygon points="-24.8621506177483,0 -27.62461179749811,9.20820393249937 0,0 -27.62461179749811,-9.20820393249937" fill="#000000" transform="translate(145.09709502520047 0) rotate(0)" stroke="none"/></g><g transform="translate(-155.6174722037261 300) rotate(360) translate(0 -13)"><g transform="translate(0 0)"><g transform="translate(-23.234375 0)" fill="#ffffff" stroke="#000000" stroke-width="0"><rect x="0" y="0" width="46.46875" height="26" rx="5" ry="5" stroke="none"/><text xml:space="preserve" x="5" y="17.5" stroke="none" text-anchor="left" font-family="sans-serif" font-size="16" font-weight="normal" fill="#000000">hasA</text></g></g></g></g><g class="relationship"><g transform="translate(-724.1354769974232 300.5100238053506) rotate(179.86746307391203)" stroke-width="5" stroke="#000000"><path d="M 59 0 L 302.72376864137937 0"/><polygon points="-24.8621506177483,0 -27.62461179749811,9.20820393249937 0,0 -27.62461179749811,-9.20820393249937" fill="#000000" transform="translate(327.58591925912765 0) rotate(0)" stroke="none"/></g><g transform="translate(-904.9968774295194 300.928394181325) rotate(359.86746307391206) translate(0 -13)"><g transform="translate(0 0)"><g transform="translate(-39.23046875 0)" fill="#ffffff" stroke="#000000" stroke-width="0"><rect x="0" y="0" width="78.4609375" height="26" rx="5" ry="5" stroke="none"/><text xml:space="preserve" x="5" y="17.5" stroke="none" text-anchor="left" font-family="sans-serif" font-size="16" font-weight="normal" fill="#000000">hasDriver</text></g></g></g></g><g class="relationship"><g transform="translate(-943.9582791062575 -17.494077807262556) rotate(90)" stroke-width="5" stroke="#000000"><path d="M 59 0 L 142.04704493218424 0"/><polygon points="-24.8621506177483,0 -27.62461179749811,9.20820393249937 0,0 -27.62461179749811,-9.20820393249937" fill="#000000" transform="translate(166.90919554993252 0) rotate(0)" stroke="none"/></g><g transform="translate(-943.9582791062575 83.02944465882956) rotate(270) translate(0 -13)"><g transform="translate(0 0)"><g transform="translate(-39.23828125 0)" fill="#ffffff" stroke="#000000" stroke-width="0"><rect x="0" y="0" width="78.4765625" height="26" rx="5" ry="5" stroke="none"/><text xml:space="preserve" x="5" y="17.5" stroke="none" text-anchor="left" font-family="sans-serif" font-size="16" font-weight="normal" fill="#000000">hasName</text></g></g></g></g><g class="relationship"><g transform="translate(-943.9582791062575 -17.494077807262556) rotate(-124.65446752111895)" stroke-width="5" stroke="#000000"><path d="M 59 0 L 209.40985064769708 0"/><polygon points="-24.8621506177483,0 -27.62461179749811,9.20820393249937 0,0 -27.62461179749811,-9.20820393249937" fill="#000000" transform="translate(234.2720012654454 0) rotate(0)" stroke="none"/></g><g transform="translate(-1020.2706879959371 -127.89053712835718) rotate(55.34553247888106) translate(0 -13)"><g transform="translate(0 0)"><g transform="translate(-41.0234375 0)" fill="#ffffff" stroke="#000000" stroke-width="0"><rect x="0" y="0" width="82.046875" height="26" rx="5" ry="5" stroke="none"/><text xml:space="preserve" x="5" y="17.5" stroke="none" text-anchor="left" font-family="sans-serif" font-size="16" font-weight="normal" fill="#000000">hasNation</text></g></g></g></g><g class="relationship"><g transform="translate(-1110.7203619616942 301.40427577554493) rotate(-90)" stroke-width="5" stroke="#000000"><path d="M 59 0 L 476.28063180841275 0"/><polygon points="-24.8621506177483,0 -27.62461179749811,9.20820393249937 0,0 -27.62461179749811,-9.20820393249937" fill="#000000" transform="translate(501.14278242616103 0) rotate(0)" stroke="none"/></g><g transform="translate(-1110.7203619616942 33.76395987133856) rotate(90) translate(0 -13)"><g transform="translate(0 0)"><g transform="translate(-41.0234375 0)" fill="#ffffff" stroke="#000000" stroke-width="0"><rect x="0" y="0" width="82.046875" height="26" rx="5" ry="5" stroke="none"/><text xml:space="preserve" x="5" y="17.5" stroke="none" text-anchor="left" font-family="sans-serif" font-size="16" font-weight="normal" fill="#000000">hasNation</text></g></g></g></g><g class="relationship"><g transform="translate(-1110.7203619616942 301.40427577554493) rotate(-179.5672589422379)" stroke-width="5" stroke="#000000"><path d="M 59 0 L 125.06853177538046 0"/><polygon points="-24.8621506177483,0 -27.62461179749811,9.20820393249937 0,0 -27.62461179749811,-9.20820393249937" fill="#000000" transform="translate(149.93068239312876 0) rotate(0)" stroke="none"/></g></g><g class="relationship"><g transform="translate(-503.65232382339366 299.99999999999994) rotate(179.8674630739121)" stroke-width="5" stroke="#000000"><path d="M 59 0 L 136.62159245154152 0"/><polygon points="-24.8621506177483,0 -27.62461179749811,9.20820393249937 0,0 -27.62461179749811,-9.20820393249937" fill="#000000" transform="translate(161.4837430692898 0) rotate(0)" stroke="none"/></g><g transform="translate(-601.4628583603692 300.22625629355247) rotate(359.86746307391206) translate(0 -13)"><g transform="translate(0 0)"><g transform="translate(-36.125 0)" fill="#ffffff" stroke="#000000" stroke-width="0"><rect x="0" y="0" width="72.25" height="26" rx="5" ry="5" stroke="none"/><text xml:space="preserve" x="5" y="17.5" stroke="none" text-anchor="left" font-family="sans-serif" font-size="16" font-weight="normal" fill="#000000">subclass</text></g></g></g></g><g class="relationship"><g transform="translate(-503.65232382339366 427.80603164215404) rotate(-150.00000000000003)" stroke-width="5" stroke="#000000"><path d="M 59 0 L 170.72986505585857 0"/><polygon points="-24.8621506177483,0 -27.62461179749811,9.20820393249937 0,0 -27.62461179749811,-9.20820393249937" fill="#000000" transform="translate(195.59201567360688 0) rotate(0)" stroke="none"/></g><g transform="translate(-603.1282733965659 370.3735653781894) rotate(29.999999999999993) translate(0 -13)"><g transform="translate(0 0)"><g transform="translate(-36.125 0)" fill="#ffffff" stroke="#000000" stroke-width="0"><rect x="0" y="0" width="72.25" height="26" rx="5" ry="5" stroke="none"/><text xml:space="preserve" x="5" y="17.5" stroke="none" text-anchor="left" font-family="sans-serif" font-size="16" font-weight="normal" fill="#000000">subclass</text></g></g></g></g><g class="relationship"><g transform="translate(-503.65232382339366 154.41313225934795) rotate(146.47068651222577)" stroke-width="5" stroke="#000000"><path d="M 59 0 L 180.63193731800698 0"/><polygon points="-24.8621506177483,0 -27.62461179749811,9.20820393249937 0,0 -27.62461179749811,-9.20820393249937" fill="#000000" transform="translate(205.49408793575526 0) rotate(0)" stroke="none"/></g><g transform="translate(-603.5313146042934 220.59510522997076) rotate(326.47068651222577) translate(0 -13)"><g transform="translate(0 0)"><g transform="translate(-36.125 0)" fill="#ffffff" stroke="#000000" stroke-width="0"><rect x="0" y="0" width="72.25" height="26" rx="5" ry="5" stroke="none"/><text xml:space="preserve" x="5" y="17.5" stroke="none" text-anchor="left" font-family="sans-serif" font-size="16" font-weight="normal" fill="#000000">subclass</text></g></g></g></g><g class="relationship"><g transform="translate(-503.65232382339366 427.80603164215404) rotate(0.0000011461428389329785)" stroke-width="5" stroke="#000000"><path d="M 59 0 L 149.69307818044496 0"/><polygon points="-24.8621506177483,0 -27.62461179749811,9.20820393249937 0,0 -27.62461179749811,-9.20820393249937" fill="#000000" transform="translate(174.55522879819324 0) rotate(0)" stroke="none"/></g><g transform="translate(-399.3057847331712 427.80603372949867) rotate(0.0000011461428389329785) translate(0 -13)"><g transform="translate(0 0)"><g transform="translate(-37.01953125 0)" fill="#ffffff" stroke="#000000" stroke-width="0"><rect x="0" y="0" width="74.0390625" height="26" rx="5" ry="5" stroke="none"/><text xml:space="preserve" x="5" y="17.5" stroke="none" text-anchor="left" font-family="sans-serif" font-size="16" font-weight="normal" fill="#000000">pInQualif</text></g></g></g></g><g class="relationship"><g transform="translate(-503.65232382339366 154.41313225934795) rotate(18.399919488027873)" stroke-width="5" stroke="#000000"><path d="M 59 0 L 377.3699954936765 0"/><polygon points="-24.8621506177483,0 -27.62461179749811,9.20820393249937 0,0 -27.62461179749811,-9.20820393249937" fill="#000000" transform="translate(402.2321461114248 0) rotate(0)" stroke="none"/></g><g transform="translate(-296.6217165850219 223.28272575530872) rotate(18.399919488027873) translate(0 -13)"><g transform="translate(0 0)"><g transform="translate(-74.37890625 0)" fill="#ffffff" stroke="#000000" stroke-width="0"><rect x="0" y="0" width="148.7578125" height="26" rx="5" ry="5" stroke="none"/><text xml:space="preserve" x="5" y="17.5" stroke="none" text-anchor="left" font-family="sans-serif" font-size="16" font-weight="normal" fill="#000000">partecipatedInRace</text></g></g></g></g><g class="relationship"><g transform="translate(-503.65232382339366 299.99999999999994) rotate(2.7889660279306383e-14)" stroke-width="5" stroke="#000000"><path d="M 59 0 L 149.6930781804449 0"/><polygon points="-24.8621506177483,0 -27.62461179749811,9.20820393249937 0,0 -27.62461179749811,-9.20820393249937" fill="#000000" transform="translate(174.55522879819318 0) rotate(0)" stroke="none"/></g><g transform="translate(-399.3057847331712 300) rotate(2.7889660279306383e-14) translate(0 -13)"><g transform="translate(0 0)"><g transform="translate(-37.01953125 0)" fill="#ffffff" stroke="#000000" stroke-width="0"><rect x="0" y="0" width="74.0390625" height="26" rx="5" ry="5" stroke="none"/><text xml:space="preserve" x="5" y="17.5" stroke="none" text-anchor="left" font-family="sans-serif" font-size="16" font-weight="normal" fill="#000000">pInSprint</text></g></g></g></g><g class="relationship"><g transform="translate(-503.65232382339366 -68.58488225733005) rotate(-90)" stroke-width="5" stroke="#000000"><path d="M 59 0 L 82.55296712492166 0"/><polygon points="-24.8621506177483,0 -27.62461179749811,9.20820393249937 0,0 -27.62461179749811,-9.20820393249937" fill="#000000" transform="translate(107.41511774266996 0) rotate(0)" stroke="none"/></g></g><g class="relationship"><g transform="translate(-503.65232382339366 427.80603164215404) rotate(179.9999987859043)" stroke-width="5" stroke="#000000"><path d="M 59 0 L 159.62100255628127 0"/><polygon points="-24.8621506177483,0 -27.62461179749811,9.20820393249937 0,0 -27.62461179749811,-9.20820393249937" fill="#000000" transform="translate(184.48315317402958 0) rotate(0)" stroke="none"/></g></g><g class="relationship"><g transform="translate(-724.1354769974232 -68.58488225733005) rotate(-90)" stroke-width="5" stroke="#000000"><path d="M 59 0 L 82.55296712492166 0"/><polygon points="-24.8621506177483,0 -27.62461179749811,9.20820393249937 0,0 -27.62461179749811,-9.20820393249937" fill="#000000" transform="translate(107.41511774266996 0) rotate(0)" stroke="none"/></g></g><g class="relationship"><g transform="translate(-503.65232382339366 154.41313225934795) rotate(-90)" stroke-width="5" stroke="#000000"><path d="M 59 0 L 139.1358638989297 0"/><polygon points="-24.8621506177483,0 -27.62461179749811,9.20820393249937 0,0 -27.62461179749811,-9.20820393249937" fill="#000000" transform="translate(163.99801451667798 0) rotate(0)" stroke="none"/></g><g transform="translate(-503.65232382339366 55.3452003098831) rotate(90) translate(0 -13)"><g transform="translate(0 0)"><g transform="translate(-43.69140625 0)" fill="#ffffff" stroke="#000000" stroke-width="0"><rect x="0" y="0" width="87.3828125" height="26" rx="5" ry="5" stroke="none"/><text xml:space="preserve" x="5" y="17.5" stroke="none" text-anchor="left" font-family="sans-serif" font-size="16" font-weight="normal" fill="#000000">hasPitStop</text></g></g></g></g><g class="relationship"><g transform="translate(-503.65232382339366 154.41313225934795) rotate(-134.67509466691484)" stroke-width="5" stroke="#000000"><path d="M 58.695178092152055 -5.989663490593891 L 95.96898050729243 -9.793341079425122 A 40 40 0 0 1 100.02976931447472 -10 L 156.79679151049544 -10 L 213.56381370651619 -10 A 40 40 0 0 1 217.62460251369848 -9.79334107942512 L 230.16470394133637 -8.51366206436971 L 230.16470394133637 -8.51366206436971"/><polygon points="-24.8621506177483,0 -27.62461179749811,9.20820393249937 0,0 -27.62461179749811,-9.20820393249937" fill="#000000" transform="translate(313.5935830209909 0) rotate(5.826689442008371) translate(-59 0)" stroke="none"/></g><g transform="translate(-621.0049519940676 49.94498166108514) rotate(45.324905333085155) translate(0 -13)"><g transform="translate(0 0)"><g transform="translate(-31.24609375 0)" fill="#ffffff" stroke="#000000" stroke-width="0"><rect x="0" y="0" width="62.4921875" height="26" rx="5" ry="5" stroke="none"/><text xml:space="preserve" x="5" y="17.5" stroke="none" text-anchor="left" font-family="sans-serif" font-size="16" font-weight="normal" fill="#000000">hasLap</text></g></g></g></g><g class="relationship"><g transform="translate(-503.65232382339366 154.41313225934795) rotate(-134.67509466691484)" stroke-width="5" stroke="#000000"><path d="M 58.695178092152055 5.989663490593891 L 95.96898050729243 9.793341079425122 A 40 40 0 0 0 100.02976931447472 10 L 156.79679151049544 10 L 213.56381370651619 10 A 40 40 0 0 0 217.62460251369848 9.79334107942512 L 230.16470394133637 8.51366206436971 L 230.16470394133637 8.51366206436971"/><polygon points="-24.8621506177483,0 -27.62461179749811,9.20820393249937 0,0 -27.62461179749811,-9.20820393249937" fill="#000000" transform="translate(313.5935830209909 0) rotate(-5.826689442008371) translate(-59 0)" stroke="none"/></g><g transform="translate(-606.7828488267492 35.883268340932716) rotate(45.324905333085155) translate(0 -13)"><g transform="translate(0 0)"><g transform="translate(-57.4765625 0)" fill="#ffffff" stroke="#000000" stroke-width="0"><rect x="0" y="0" width="114.953125" height="26" rx="5" ry="5" stroke="none"/><text xml:space="preserve" x="5" y="17.5" stroke="none" text-anchor="left" font-family="sans-serif" font-size="16" font-weight="normal" fill="#000000">hasFastestLap</text></g></g></g></g><g class="relationship"><g transform="translate(-724.1354769974232 300.5100238053506) rotate(-124.65446752111889)" stroke-width="5" stroke="#000000"><path d="M 59 0 L 302.7237686413796 0"/><polygon points="-24.8621506177483,0 -27.62461179749811,9.20820393249937 0,0 -27.62461179749811,-9.20820393249937" fill="#000000" transform="translate(327.5859192591279 0) rotate(0)" stroke="none"/></g><g transform="translate(-826.9782455138017 151.73372809962612) rotate(55.34553247888112) translate(0 -13)"><g transform="translate(0 0)"><g transform="translate(-59.24609375 0)" fill="#ffffff" stroke="#000000" stroke-width="0"><rect x="0" y="0" width="118.4921875" height="26" rx="5" ry="5" stroke="none"/><text xml:space="preserve" x="5" y="17.5" stroke="none" text-anchor="left" font-family="sans-serif" font-size="16" font-weight="normal" fill="#000000">hasConstructor</text></g></g></g></g><g class="relationship"><g transform="translate(-503.65232382339366 154.41313225934795) rotate(-43.675343887441535)" stroke-width="5" stroke="#000000"><path d="M 59 0 L 239.05604239304645 0"/><polygon points="-24.8621506177483,0 -27.62461179749811,9.20820393249937 0,0 -27.62461179749811,-9.20820393249937" fill="#000000" transform="translate(263.91819301079477 0) rotate(0)" stroke="none"/></g><g transform="translate(-395.8656634826663 51.49866799730141) rotate(-43.675343887441535) translate(0 -13)"><g transform="translate(0 0)"><g transform="translate(-40.578125 0)" fill="#ffffff" stroke="#000000" stroke-width="0"><rect x="0" y="0" width="81.15625" height="26" rx="5" ry="5" stroke="none"/><text xml:space="preserve" x="5" y="17.5" stroke="none" text-anchor="left" font-family="sans-serif" font-size="16" font-weight="normal" fill="#000000">hasStatus</text></g></g></g></g><g class="relationship"><g transform="translate(-503.65232382339366 299.99999999999994) rotate(-57.63945157809788)" stroke-width="5" stroke="#000000"><path d="M 59 0 L 352.48961152791577 0"/><polygon points="-24.8621506177483,0 -27.62461179749811,9.20820393249937 0,0 -27.62461179749811,-9.20820393249937" fill="#000000" transform="translate(377.35176214566405 0) rotate(0)" stroke="none"/></g><g transform="translate(-393.5283840277755 126.20804684123075) rotate(-57.63945157809788) translate(0 -13)"><g transform="translate(0 0)"><g transform="translate(-40.578125 0)" fill="#ffffff" stroke="#000000" stroke-width="0"><rect x="0" y="0" width="81.15625" height="26" rx="5" ry="5" stroke="none"/><text xml:space="preserve" x="5" y="17.5" stroke="none" text-anchor="left" font-family="sans-serif" font-size="16" font-weight="normal" fill="#000000">hasStatus</text></g></g></g></g><g class="relationship"><g transform="translate(-503.65232382339366 -68.58488225733005) rotate(180)" stroke-width="5" stroke="#000000"><path d="M 59 0 L 136.62100255628127 0"/><polygon points="-24.8621506177483,0 -27.62461179749811,9.20820393249937 0,0 -27.62461179749811,-9.20820393249937" fill="#000000" transform="translate(161.48315317402955 0) rotate(0)" stroke="none"/></g><g transform="translate(-601.4628251015342 -68.58488225733004) rotate(360) translate(0 -13)"><g transform="translate(0 0)"><g transform="translate(-40.58203125 0)" fill="#ffffff" stroke="#000000" stroke-width="0"><rect x="0" y="0" width="81.1640625" height="26" rx="5" ry="5" stroke="none"/><text xml:space="preserve" x="5" y="17.5" stroke="none" text-anchor="left" font-family="sans-serif" font-size="16" font-weight="normal" fill="#000000">hasPitLap</text></g></g></g></g><g class="relationship"><g transform="translate(-1110.7203619616942 580.5961207407668) rotate(-90)" stroke-width="5" stroke="#000000"><path d="M 59 0 L 195.32969434747352 0"/><polygon points="-24.8621506177483,0 -27.62461179749811,9.20820393249937 0,0 -27.62461179749811,-9.20820393249937" fill="#000000" transform="translate(220.19184496522183 0) rotate(0)" stroke="none"/></g><g transform="translate(-1110.7203619616942 453.43127356703) rotate(90) translate(0 -13)"><g transform="translate(0 0)"><g transform="translate(-39.23046875 0)" fill="#ffffff" stroke="#000000" stroke-width="0"><rect x="0" y="0" width="78.4609375" height="26" rx="5" ry="5" stroke="none"/><text xml:space="preserve" x="5" y="17.5" stroke="none" text-anchor="left" font-family="sans-serif" font-size="16" font-weight="normal" fill="#000000">hasDriver</text></g></g></g></g><g class="relationship"><g transform="translate(-1110.7203619616942 580.5961207407668) rotate(0)" stroke-width="5" stroke="#000000"><path d="M 59 0 L 960.8582113439459 0"/><polygon points="-24.8621506177483,0 -27.62461179749811,9.20820393249937 0,0 -27.62461179749811,-9.20820393249937" fill="#000000" transform="translate(985.7203619616942 0) rotate(0)" stroke="none"/></g><g transform="translate(-600.7912562897212 580.5961207407668) rotate(0) translate(0 -13)"><g transform="translate(0 0)"><g transform="translate(-38.359375 0)" fill="#ffffff" stroke="#000000" stroke-width="0"><rect x="0" y="0" width="76.71875" height="26" rx="5" ry="5" stroke="none"/><text xml:space="preserve" x="5" y="17.5" stroke="none" text-anchor="left" font-family="sans-serif" font-size="16" font-weight="normal" fill="#000000">inSeason</text></g></g></g></g><g class="relationship"><g transform="translate(-503.65232382339366 299.99999999999994) rotate(-120.88736870801242)" stroke-width="5" stroke="#000000"><path d="M 59 0 L 345.63480660338547 0"/><polygon points="-24.8621506177483,0 -27.62461179749811,9.20820393249937 0,0 -27.62461179749811,-9.20820393249937" fill="#000000" transform="translate(370.49695722113375 0) rotate(0)" stroke="none"/></g><g transform="translate(-607.5123821356859 126.37563544793878) rotate(59.112631291987576) translate(0 -13)"><g transform="translate(0 0)"><g transform="translate(-57.4765625 0)" fill="#ffffff" stroke="#000000" stroke-width="0"><rect x="0" y="0" width="114.953125" height="26" rx="5" ry="5" stroke="none"/><text xml:space="preserve" x="5" y="17.5" stroke="none" text-anchor="left" font-family="sans-serif" font-size="16" font-weight="normal" fill="#000000">hasFastestLap</text></g></g></g></g><g class="node"><g fill="#ffffff" stroke="#000000" stroke-width="4"><circle cx="-66" cy="-30" r="52"/></g><g transform="translate(-66 -30)"><g transform="scale(0.58203166796875) translate(0 0)"><g transform="translate(0 0)"><g font-family="sans-serif" font-size="50" font-weight="normal" fill="#000000" text-anchor="middle"><text xml:space="preserve" x="0" y="13" stroke="none">Circuit</text></g></g></g></g></g><g class="node"><g fill="#ffffff" stroke="#000000" stroke-width="4"><circle cx="-66" cy="-258.7385066506161" r="52"/></g><g transform="translate(-66 -258.7385066506161)"><g transform="scale(0.45312554687499995) translate(0 0)"><g transform="translate(0 0)"><g font-family="sans-serif" font-size="50" font-weight="normal" fill="#000000" text-anchor="middle"><text xml:space="preserve" x="0" y="13" stroke="none">Location</text></g></g></g></g></g><g class="node"><g fill="#ffffff" stroke="#000000" stroke-width="4"><circle cx="-1110.7203619616942" cy="-258.7385066506161" r="52"/></g><g transform="translate(-1110.7203619616942 -258.7385066506161)"><g transform="scale(0.484375515625) translate(0 0)"><g transform="translate(0 0)"><g font-family="sans-serif" font-size="50" font-weight="normal" fill="#000000" text-anchor="middle"><text xml:space="preserve" x="0" y="13" stroke="none">Country</text></g></g></g></g></g><g class="node"><g fill="#ffffff" stroke="#000000" stroke-width="1"><circle cx="162.7385066506161" cy="-30" r="30.5"/></g><g transform="translate(162.7385066506161 -30)"><g transform="scale(0.341797533203125) translate(0 0)"><g transform="translate(0 0)"><g font-family="sans-serif" font-size="50" font-weight="normal" fill="#000000" text-anchor="middle"><text xml:space="preserve" x="0" y="13" stroke="none">Name</text></g></g></g></g></g><g class="node"><g fill="#ffffff" stroke="#000000" stroke-width="4"><circle cx="-66" cy="300" r="52"/></g><g transform="translate(-66 300)"><g transform="scale(0.6835940664062501) translate(0 0)"><g transform="translate(0 0)"><g font-family="sans-serif" font-size="50" font-weight="normal" fill="#000000" text-anchor="middle"><text xml:space="preserve" x="0" y="13" stroke="none">Race</text></g></g></g></g></g><g class="node"><g fill="#ffffff" stroke="#000000" stroke-width="4"><circle cx="-1110.7203619616942" cy="301.40427577554493" r="52"/></g><g transform="translate(-1110.7203619616942 301.40427577554493)"><g transform="scale(0.6132816367187499) translate(0 0)"><g transform="translate(0 0)"><g font-family="sans-serif" font-size="50" font-weight="normal" fill="#000000" text-anchor="middle"><text xml:space="preserve" x="0" y="13" stroke="none">Driver</text></g></g></g></g></g><g class="node"><g fill="#ffffff" stroke="#000000" stroke-width="4"><circle cx="-943.9582791062575" cy="-17.494077807262556" r="52"/></g><g transform="translate(-943.9582791062575 -17.494077807262556)"><g transform="scale(0.37304750195312497) translate(0 0)"><g transform="translate(0 0)"><g font-family="sans-serif" font-size="50" font-weight="normal" fill="#000000" text-anchor="middle"><text xml:space="preserve" x="0" y="13" stroke="none">Contructor</text></g></g></g></g></g><g class="node"><g fill="#ffffff" stroke="#000000" stroke-width="4"><circle cx="-66" cy="580.5961207407668" r="52"/></g><g transform="translate(-66 580.5961207407668)"><g transform="scale(0.5000005) translate(0 0)"><g transform="translate(0 0)"><g font-family="sans-serif" font-size="50" font-weight="normal" fill="#000000" text-anchor="middle"><text xml:space="preserve" x="0" y="13" stroke="none">Season</text></g></g></g></g></g><g class="node"><g fill="#ffffff" stroke="#000000" stroke-width="4"><circle cx="-270.0970950252005" cy="427.80603631418495" r="52"/></g><g transform="translate(-270.0970950252005 427.80603631418495)"><g transform="scale(0.31836005664062494) translate(0 0)"><g transform="translate(0 0)"><g font-family="sans-serif" font-size="50" font-weight="normal" fill="#000000" text-anchor="middle"><text xml:space="preserve" x="0" y="13" stroke="none">Qualification</text></g></g></g></g></g><g class="node"><g fill="#ffffff" stroke="#000000" stroke-width="4"><circle cx="-270.0970950252005" cy="300.00000000000006" r="52"/></g><g transform="translate(-270.0970950252005 300.00000000000006)"><g transform="scale(0.6250003749999999) translate(0 0)"><g transform="translate(0 0)"><g font-family="sans-serif" font-size="50" font-weight="normal" fill="#000000" text-anchor="middle"><text xml:space="preserve" x="0" y="13" stroke="none">Sprint</text></g></g></g></g></g><g class="node"><g fill="#ffffff" stroke="#000000" stroke-width="4"><circle cx="-724.1354769974232" cy="300.5100238053506" r="52"/></g><g transform="translate(-724.1354769974232 300.5100238053506)"><g transform="scale(0.30078194921875) translate(0 0)"><g transform="translate(0 0)"><g font-family="sans-serif" font-size="50" font-weight="normal" fill="#000000" text-anchor="middle"><text xml:space="preserve" x="0" y="13" stroke="none">Partecipation</text></g></g></g></g></g><g class="node"><g fill="#ffffff" stroke="#000000" stroke-width="4"><circle cx="-503.65232382339366" cy="-68.58488225733005" r="52"/></g><g transform="translate(-503.65232382339366 -68.58488225733005)"><g transform="scale(0.56640668359375) translate(0 0)"><g transform="translate(0 0)"><g font-family="sans-serif" font-size="50" font-weight="normal" fill="#000000" text-anchor="middle"><text xml:space="preserve" x="0" y="-17" stroke="none">Pit</text><text xml:space="preserve" x="0" y="43" stroke="none" text-anchor="middle">Stop</text></g></g></g></g></g><g class="node"><g fill="#ffffff" stroke="#000000" stroke-width="1"><circle cx="-943.9582791062575" cy="185.41511774266996" r="30.5"/></g><g transform="translate(-943.9582791062575 185.41511774266996)"><g transform="scale(0.341797533203125) translate(0 0)"><g transform="translate(0 0)"><g font-family="sans-serif" font-size="50" font-weight="normal" fill="#000000" text-anchor="middle"><text xml:space="preserve" x="0" y="13" stroke="none">Name</text></g></g></g></g></g><g class="node"><g fill="#ffffff" stroke="#000000" stroke-width="1"><circle cx="-1296.6457412532818" cy="299.99999999999994" r="30.5"/></g><g transform="translate(-1296.6457412532818 299.99999999999994)"><g transform="scale(0.1669930205078125) translate(0 0)"><g transform="translate(0 0)"><g font-family="sans-serif" font-size="50" font-weight="normal" fill="#000000" text-anchor="middle"><text xml:space="preserve" x="0" y="-77" stroke="none">Number</text><text xml:space="preserve" x="0" y="-17" stroke="none" text-anchor="middle">Code Name</text><text xml:space="preserve" x="0" y="43" stroke="none" text-anchor="middle">Surname</text><text xml:space="preserve" x="0" y="103" stroke="none" text-anchor="middle">Birth</text></g></g></g></g></g><g class="node"><g fill="#ffffff" stroke="#000000" stroke-width="4"><circle cx="-724.1354769974232" cy="-68.58488225733005" r="52"/></g><g transform="translate(-724.1354769974232 -68.58488225733005)"><g transform="scale(0.875000125) translate(0 0)"><g transform="translate(0 0)"><g font-family="sans-serif" font-size="50" font-weight="normal" fill="#000000" text-anchor="middle"><text xml:space="preserve" x="0" y="13" stroke="none">Lap</text></g></g></g></g></g><g class="node"><g fill="#ffffff" stroke="#000000" stroke-width="4"><circle cx="-503.65232382339366" cy="299.99999999999994" r="52"/></g><g transform="translate(-503.65232382339366 299.99999999999994)"><g transform="scale(0.306641318359375) translate(0 0)"><g transform="translate(0 0)"><g font-family="sans-serif" font-size="50" font-weight="normal" fill="#000000" text-anchor="middle"><text xml:space="preserve" x="0" y="-47" stroke="none">Sprint</text><text xml:space="preserve" x="0" y="13" stroke="none" text-anchor="middle">partecipation</text></g></g></g></g></g><g class="node"><g fill="#ffffff" stroke="#000000" stroke-width="4"><circle cx="-503.65232382339366" cy="427.80603164215404" r="52"/></g><g transform="translate(-503.65232382339366 427.80603164215404)"><g transform="scale(0.306641318359375) translate(0 0)"><g transform="translate(0 0)"><g font-family="sans-serif" font-size="50" font-weight="normal" fill="#000000" text-anchor="middle"><text xml:space="preserve" x="0" y="-47" stroke="none">Qualif.</text><text xml:space="preserve" x="0" y="13" stroke="none" text-anchor="middle">partecipation</text></g></g></g></g></g><g class="node"><g fill="#ffffff" stroke="#000000" stroke-width="4"><circle cx="-503.65232382339366" cy="154.41313225934795" r="52"/></g><g transform="translate(-503.65232382339366 154.41313225934795)"><g transform="scale(0.306641318359375) translate(0 0)"><g transform="translate(0 0)"><g font-family="sans-serif" font-size="50" font-weight="normal" fill="#000000" text-anchor="middle"><text xml:space="preserve" x="0" y="-47" stroke="none">Race</text><text xml:space="preserve" x="0" y="13" stroke="none" text-anchor="middle">partecipation</text></g></g></g></g></g><g class="node"><g fill="#ffffff" stroke="#000000" stroke-width="1"><circle cx="-503.65232382339366" cy="-212" r="30.5"/></g><g transform="translate(-503.65232382339366 -212)"><g transform="scale(0.23632888867187501) translate(0 0)"><g transform="translate(0 0)"><g font-family="sans-serif" font-size="50" font-weight="normal" fill="#000000" text-anchor="middle"><text xml:space="preserve" x="0" y="-47" stroke="none">Time</text><text xml:space="preserve" x="0" y="13" stroke="none" text-anchor="middle">Duration</text><text xml:space="preserve" x="0" y="73" stroke="none" text-anchor="middle">Lap</text></g></g></g></g></g><g class="node"><g fill="#ffffff" stroke="#000000" stroke-width="1"><circle cx="-724.1354769974232" cy="427.80603631418495" r="30.5"/></g><g transform="translate(-724.1354769974232 427.80603631418495)"><g transform="scale(0.19921955078124998) translate(0 0)"><g transform="translate(0 0)"><g font-family="sans-serif" font-size="50" font-weight="normal" fill="#000000" text-anchor="middle"><text xml:space="preserve" x="0" y="-17" stroke="none">Position</text><text xml:space="preserve" x="0" y="43" stroke="none" text-anchor="middle">Q1 Q2</text><text xml:space="preserve" x="0" y="103" stroke="none" text-anchor="middle">Q3</text></g></g></g></g></g><g class="node"><g fill="#ffffff" stroke="#000000" stroke-width="1"><circle cx="-724.1354769974232" cy="-212" r="30.5"/></g><g transform="translate(-724.1354769974232 -212)"><g transform="scale(0.23632888867187501) translate(0 0)"><g transform="translate(0 0)"><g font-family="sans-serif" font-size="50" font-weight="normal" fill="#000000" text-anchor="middle"><text xml:space="preserve" x="0" y="13" stroke="none">Position</text><text xml:space="preserve" x="0" y="73" stroke="none" text-anchor="middle">Time</text></g></g></g></g></g><g class="node"><g fill="#ffffff" stroke="#000000" stroke-width="4"><circle cx="-270.0970950252005" cy="-68.58488225733005" r="52"/></g><g transform="translate(-270.0970950252005 -68.58488225733005)"><g transform="scale(0.58203166796875) translate(0 0)"><g transform="translate(0 0)"><g font-family="sans-serif" font-size="50" font-weight="normal" fill="#000000" text-anchor="middle"><text xml:space="preserve" x="0" y="13" stroke="none">Status</text></g></g></g></g></g><g class="node"><g fill="#ffffff" stroke="#000000" stroke-width="4"><circle cx="-1110.7203619616942" cy="580.5961207407668" r="52"/></g><g transform="translate(-1110.7203619616942 580.5961207407668)"><g transform="scale(0.57421917578125) translate(0 0)"><g transform="translate(0 0)"><g font-family="sans-serif" font-size="50" font-weight="normal" fill="#000000" text-anchor="middle"><text xml:space="preserve" x="0" y="13" stroke="none">Rating</text></g></g></g></g></g></g></svg>