<svg xmlns="http://www.w3.org/2000/svg" width="1561" height="851" viewBox="0 0 1561 851"><defs><style type="text/css"/></defs><g transform="translate(750.1354769974232 54) scale(1)"><g class="relationship"><g transform="translate(-66 0) rotate(0)" stroke-width="5" stroke="#000000"><path d="M 59 0 L 738.8592494777013 0"/><polygon points="-24.8621506177483,0 -27.62461179749811,9.20820393249937 0,0 -27.62461179749811,-9.20820393249937" fill="#000000" transform="translate(763.7214000954496 0) rotate(0)" stroke="none"/></g><g transform="translate(332.92962473885063 0) rotate(0) translate(0 -13)"><g transform="translate(0 0)"><g transform="translate(-48.14453125 0)" fill="#ffffff" stroke="#000000" stroke-width="0"><rect x="0" y="0" width="96.2890625" height="26" rx="5" ry="5" stroke="none"/><text xml:space="preserve" x="5" y="17.5" stroke="none" text-anchor="left" font-family="sans-serif" font-size="16" font-weight="normal" fill="#000000">hasLocation</text></g></g></g></g><g class="relationship"><g transform="translate(756.7214000954496 0) rotate(90)" stroke-width="5" stroke="#000000"><path d="M 59 0 L 658.8709300181844 0"/><polygon points="-24.8621506177483,0 -27.62461179749811,9.20820393249937 0,0 -27.62461179749811,-9.20820393249937" fill="#000000" transform="translate(683.7330806359327 0) rotate(0)" stroke="none"/></g><g transform="translate(756.7214000954496 358.9354650090922) rotate(270) translate(0 -13)"><g transform="translate(0 0)"><g transform="translate(-45.91015625 0)" fill="#ffffff" stroke="#000000" stroke-width="0"><rect x="0" y="0" width="91.8203125" height="26" rx="5" ry="5" stroke="none"/><text xml:space="preserve" x="5" y="17.5" stroke="none" text-anchor="left" font-family="sans-serif" font-size="16" font-weight="normal" fill="#000000">hasCountry</text></g></g></g></g><g class="relationship"><g transform="translate(-66 0) rotate(180)" stroke-width="5" stroke="#000000"><path d="M 59 0 L 137.66263211822923 0"/><polygon points="-24.8621506177483,0 -27.62461179749811,9.20820393249937 0,0 -27.62461179749811,-9.20820393249937" fill="#000000" transform="translate(162.5247827359775 0) rotate(0)" stroke="none"/></g><g transform="translate(-164.3313160591146 1.2042113146774144e-14) rotate(360) translate(0 -13)"><g transform="translate(0 0)"><g transform="translate(-39.23828125 0)" fill="#ffffff" stroke="#000000" stroke-width="0"><rect x="0" y="0" width="78.4765625" height="26" rx="5" ry="5" stroke="none"/><text xml:space="preserve" x="5" y="17.5" stroke="none" text-anchor="left" font-family="sans-serif" font-size="16" font-weight="normal" fill="#000000">hasName</text></g></g></g></g><g class="relationship"><g transform="translate(-66 300) rotate(-90)" stroke-width="5" stroke="#000000"><path d="M 59 0 L 216.1378493822517 0"/><polygon points="-24.8621506177483,0 -27.62461179749811,9.20820393249937 0,0 -27.62461179749811,-9.20820393249937" fill="#000000" transform="translate(241 0) rotate(0)" stroke="none"/></g><g transform="translate(-65.99999999999999 162.43107530887414) rotate(90) translate(0 -13)"><g transform="translate(0 0)"><g transform="translate(-40.56640625 0)" fill="#ffffff" stroke="#000000" stroke-width="0"><rect x="0" y="0" width="81.1328125" height="26" rx="5" ry="5" stroke="none"/><text xml:space="preserve" x="5" y="17.5" stroke="none" text-anchor="left" font-family="sans-serif" font-size="16" font-weight="normal" fill="#000000">hasCircuit</text></g></g></g></g><g class="relationship"><g transform="translate(527.7109435422165 300) rotate(90)" stroke-width="5" stroke="#000000"><path d="M 59 0 L 196.73397012301845 0"/><polygon points="-24.8621506177483,0 -27.62461179749811,9.20820393249937 0,0 -27.62461179749811,-9.20820393249937" fill="#000000" transform="translate(221.59612074076676 0) rotate(0)" stroke="none"/></g><g transform="translate(527.7109435422165 427.86698506150924) rotate(270) translate(0 -13)"><g transform="translate(0 0)"><g transform="translate(-59.24609375 0)" fill="#ffffff" stroke="#000000" stroke-width="0"><rect x="0" y="0" width="118.4921875" height="26" rx="5" ry="5" stroke="none"/><text xml:space="preserve" x="5" y="17.5" stroke="none" text-anchor="left" font-family="sans-serif" font-size="16" font-weight="normal" fill="#000000">hasConstructor</text></g></g></g></g><g class="relationship"><g transform="translate(527.7109435422165 300) rotate(-180)" stroke-width="5" stroke="#000000"><path d="M 59 0 L 219.103980132896 0"/><polygon points="-24.8621506177483,0 -27.62461179749811,9.20820393249937 0,0 -27.62461179749811,-9.20820393249937" fill="#000000" transform="translate(243.9661307506443 0) rotate(0)" stroke="none"/></g><g transform="translate(388.65895347576844 300) rotate(0) translate(0 -13)"><g transform="translate(0 0)"><g transform="translate(-20.5625 0)" fill="#ffffff" stroke="#000000" stroke-width="0"><rect x="0" y="0" width="41.125" height="26" rx="5" ry="5" stroke="none"/><text xml:space="preserve" x="5" y="17.5" stroke="none" text-anchor="left" font-family="sans-serif" font-size="16" font-weight="normal" fill="#000000">year</text></g></g></g></g><g class="relationship"><g transform="translate(-66 300) rotate(-1.1201878246933418e-14)" stroke-width="5" stroke="#000000"><path d="M 59 0 L 206.88266217382383 0"/><polygon points="-24.8621506177483,0 -27.62461179749811,9.20820393249937 0,0 -27.62461179749811,-9.20820393249937" fill="#000000" transform="translate(231.74481279157214 0) rotate(0)" stroke="none"/></g><g transform="translate(66.94133108691193 300) rotate(-1.1201878246933418e-14) translate(0 -13)"><g transform="translate(0 0)"><g transform="translate(-20.5625 0)" fill="#ffffff" stroke="#000000" stroke-width="0"><rect x="0" y="0" width="41.125" height="26" rx="5" ry="5" stroke="none"/><text xml:space="preserve" x="5" y="17.5" stroke="none" text-anchor="left" font-family="sans-serif" font-size="16" font-weight="normal" fill="#000000">year</text></g></g></g></g><g class="relationship"><g transform="translate(-66 300) rotate(150.00000000000003)" stroke-width="5" stroke="#000000"><path d="M 59 0 L 171.7499126665598 0"/><polygon points="-24.8621506177483,0 -27.62461179749811,9.20820393249937 0,0 -27.62461179749811,-9.20820393249937" fill="#000000" transform="translate(196.6120632843081 0) rotate(0)" stroke="none"/></g><g transform="translate(-165.9176431451407 357.68747816663995) rotate(330.00000000000006) translate(0 -13)"><g transform="translate(0 0)"><g transform="translate(-23.234375 0)" fill="#ffffff" stroke="#000000" stroke-width="0"><rect x="0" y="0" width="46.46875" height="26" rx="5" ry="5" stroke="none"/><text xml:space="preserve" x="5" y="17.5" stroke="none" text-anchor="left" font-family="sans-serif" font-size="16" font-weight="normal" fill="#000000">hasA</text></g></g></g></g><g class="relationship"><g transform="translate(-66 300) rotate(-150.00000000000003)" stroke-width="5" stroke="#000000"><path d="M 59 0 L 171.74991266655985 0"/><polygon points="-24.8621506177483,0 -27.62461179749811,9.20820393249937 0,0 -27.62461179749811,-9.20820393249937" fill="#000000" transform="translate(196.61206328430814 0) rotate(0)" stroke="none"/></g><g transform="translate(-165.91764314514074 242.31252183336005) rotate(29.999999999999993) translate(0 -13)"><g transform="translate(0 0)"><g transform="translate(-23.234375 0)" fill="#ffffff" stroke="#000000" stroke-width="0"><rect x="0" y="0" width="46.46875" height="26" rx="5" ry="5" stroke="none"/><text xml:space="preserve" x="5" y="17.5" stroke="none" text-anchor="left" font-family="sans-serif" font-size="16" font-weight="normal" fill="#000000">hasA</text></g></g></g></g><g class="relationship"><g transform="translate(-508.7330806359327 742.7330806359327) rotate(-90)" stroke-width="5" stroke="#000000"><path d="M 59 0 L 358.8709300181844 0"/><polygon points="-24.8621506177483,0 -27.62461179749811,9.20820393249937 0,0 -27.62461179749811,-9.20820393249937" fill="#000000" transform="translate(383.7330806359327 0) rotate(0)" stroke="none"/></g><g transform="translate(-508.7330806359327 533.7976156268404) rotate(90) translate(0 -13)"><g transform="translate(0 0)"><g transform="translate(-53.03125 0)" fill="#ffffff" stroke="#000000" stroke-width="0"><rect x="0" y="0" width="106.0625" height="26" rx="5" ry="5" stroke="none"/><text xml:space="preserve" x="5" y="17.5" stroke="none" text-anchor="left" font-family="sans-serif" font-size="16" font-weight="normal" fill="#000000">partecipateTo</text></g></g></g></g><g class="relationship"><g transform="translate(-508.7330806359327 299.99999999999994) rotate(7.356324016132957e-15)" stroke-width="5" stroke="#000000"><path d="M 59 0 L 358.8709300181844 0"/><polygon points="-24.8621506177483,0 -27.62461179749811,9.20820393249937 0,0 -27.62461179749811,-9.20820393249937" fill="#000000" transform="translate(383.7330806359327 0) rotate(0)" stroke="none"/></g><g transform="translate(-299.7976156268405 299.99999999999994) rotate(7.356324016132957e-15) translate(0 -13)"><g transform="translate(0 0)"><g transform="translate(-16.5625 0)" fill="#ffffff" stroke="#000000" stroke-width="0"><rect x="0" y="0" width="33.125" height="26" rx="5" ry="5" stroke="none"/><text xml:space="preserve" x="5" y="17.5" stroke="none" text-anchor="left" font-family="sans-serif" font-size="16" font-weight="normal" fill="#000000">inA</text></g></g></g></g><g class="relationship"><g transform="translate(-508.7330806359327 299.99999999999994) rotate(-90)" stroke-width="5" stroke="#000000"><path d="M 59 0 L 109.5402457437422 0"/><polygon points="-24.8621506177483,0 -27.62461179749811,9.20820393249937 0,0 -27.62461179749811,-9.20820393249937" fill="#000000" transform="translate(134.4023963614905 0) rotate(0)" stroke="none"/></g></g><g class="relationship"><g transform="translate(-508.7330806359327 299.99999999999994) rotate(30.000000000000025)" stroke-width="5" stroke="#000000"><path d="M 59 0 L 171.74991266655968 0"/><polygon points="-24.8621506177483,0 -27.62461179749811,9.20820393249937 0,0 -27.62461179749811,-9.20820393249937" fill="#000000" transform="translate(196.612063284308 0) rotate(0)" stroke="none"/></g><g transform="translate(-408.8154374907921 357.6874781666399) rotate(30.000000000000025) translate(0 -13)"><g transform="translate(0 0)"><g transform="translate(-16.5625 0)" fill="#ffffff" stroke="#000000" stroke-width="0"><rect x="0" y="0" width="33.125" height="26" rx="5" ry="5" stroke="none"/><text xml:space="preserve" x="5" y="17.5" stroke="none" text-anchor="left" font-family="sans-serif" font-size="16" font-weight="normal" fill="#000000">inA</text></g></g></g></g><g class="relationship"><g transform="translate(-508.7330806359327 299.99999999999994) rotate(-30.00000000000001)" stroke-width="5" stroke="#000000"><path d="M 59 0 L 171.74991266655968 0"/><polygon points="-24.8621506177483,0 -27.62461179749811,9.20820393249937 0,0 -27.62461179749811,-9.20820393249937" fill="#000000" transform="translate(196.61206328430796 0) rotate(0)" stroke="none"/></g><g transform="translate(-408.8154374907921 242.31252183336) rotate(-30.00000000000001) translate(0 -13)"><g transform="translate(0 0)"><g transform="translate(-16.5625 0)" fill="#ffffff" stroke="#000000" stroke-width="0"><rect x="0" y="0" width="33.125" height="26" rx="5" ry="5" stroke="none"/><text xml:space="preserve" x="5" y="17.5" stroke="none" text-anchor="left" font-family="sans-serif" font-size="16" font-weight="normal" fill="#000000">inA</text></g></g></g></g><g class="relationship"><g transform="translate(527.7109435422165 300) rotate(-90)" stroke-width="5" stroke="#000000"><path d="M 59 0 L 109.54024574374228 0"/><polygon points="-24.8621506177483,0 -27.62461179749811,9.20820393249937 0,0 -27.62461179749811,-9.20820393249937" fill="#000000" transform="translate(134.40239636149056 0) rotate(0)" stroke="none"/></g></g><g class="relationship"><g transform="translate(-508.7330806359327 299.99999999999994) rotate(-180)" stroke-width="5" stroke="#000000"><path d="M 59 0 L 109.5402457437422 0"/><polygon points="-24.8621506177483,0 -27.62461179749811,9.20820393249937 0,0 -27.62461179749811,-9.20820393249937" fill="#000000" transform="translate(134.4023963614905 0) rotate(0)" stroke="none"/></g></g><g class="relationship"><g transform="translate(527.7109435422165 580.5961207407668) rotate(180)" stroke-width="5" stroke="#000000"><path d="M 59 0 L 167.81627963729875 0"/><polygon points="-24.8621506177483,0 -27.62461179749811,9.20820393249937 0,0 -27.62461179749811,-9.20820393249937" fill="#000000" transform="translate(192.67843025504703 0) rotate(0)" stroke="none"/></g><g transform="translate(414.3028037235671 580.5961207407668) rotate(360) translate(0 -13)"><g transform="translate(0 0)"><g transform="translate(-39.23828125 0)" fill="#ffffff" stroke="#000000" stroke-width="0"><rect x="0" y="0" width="78.4765625" height="26" rx="5" ry="5" stroke="none"/><text xml:space="preserve" x="5" y="17.5" stroke="none" text-anchor="left" font-family="sans-serif" font-size="16" font-weight="normal" fill="#000000">hasName</text></g></g></g></g><g class="relationship"><g transform="translate(527.7109435422165 580.5961207407668) rotate(35.298086574033384)" stroke-width="5" stroke="#000000"><path d="M 59 0 L 196.73397012301834 0"/><polygon points="-24.8621506177483,0 -27.62461179749811,9.20820393249937 0,0 -27.62461179749811,-9.20820393249937" fill="#000000" transform="translate(221.59612074076665 0) rotate(0)" stroke="none"/></g><g transform="translate(632.0704640862482 654.4815478596515) rotate(35.298086574033384) translate(0 -13)"><g transform="translate(0 0)"><g transform="translate(-55.25 0)" fill="#ffffff" stroke="#000000" stroke-width="0"><rect x="0" y="0" width="110.5" height="26" rx="5" ry="5" stroke="none"/><text xml:space="preserve" x="5" y="17.5" stroke="none" text-anchor="left" font-family="sans-serif" font-size="16" font-weight="normal" fill="#000000">hasNationality</text></g></g></g></g><g class="relationship"><g transform="translate(-508.7330806359327 742.7330806359327) rotate(0)" stroke-width="5" stroke="#000000"><path d="M 59 0 L 1181.592330113634 0"/><polygon points="-24.8621506177483,0 -27.62461179749811,9.20820393249937 0,0 -27.62461179749811,-9.20820393249937" fill="#000000" transform="translate(1206.4544807313823 0) rotate(0)" stroke="none"/></g><g transform="translate(111.56308442088431 742.7330806359327) rotate(0) translate(0 -13)"><g transform="translate(0 0)"><g transform="translate(-55.25 0)" fill="#ffffff" stroke="#000000" stroke-width="0"><rect x="0" y="0" width="110.5" height="26" rx="5" ry="5" stroke="none"/><text xml:space="preserve" x="5" y="17.5" stroke="none" text-anchor="left" font-family="sans-serif" font-size="16" font-weight="normal" fill="#000000">hasNationality</text></g></g></g></g><g class="relationship"><g transform="translate(-508.7330806359327 742.7330806359327) rotate(180)" stroke-width="5" stroke="#000000"><path d="M 59 0 L 109.5402457437422 0"/><polygon points="-24.8621506177483,0 -27.62461179749811,9.20820393249937 0,0 -27.62461179749811,-9.20820393249937" fill="#000000" transform="translate(134.4023963614905 0) rotate(0)" stroke="none"/></g></g><g class="relationship"><g transform="translate(-508.7330806359327 299.99999999999994) rotate(-135)" stroke-width="5" stroke="#000000"><path d="M 59 0 L 109.54024574374205 0"/><polygon points="-24.8621506177483,0 -27.62461179749811,9.20820393249937 0,0 -27.62461179749811,-9.20820393249937" fill="#000000" transform="translate(134.40239636149033 0) rotate(0)" stroke="none"/></g></g><g class="relationship"><g transform="translate(527.7109435422165 300) rotate(156.86950046327973)" stroke-width="5" stroke="#000000"><path d="M 59 0 L 1043.1821235542911 0"/><polygon points="-24.8621506177483,0 -27.62461179749811,9.20820393249937 0,0 -27.62461179749811,-9.20820393249937" fill="#000000" transform="translate(1068.0442741720394 0) rotate(0)" stroke="none"/></g><g transform="translate(20.92070393382471 516.4832820527502) rotate(336.86950046327973) translate(0 -13)"><g transform="translate(0 0)"><g transform="translate(-39.23046875 0)" fill="#ffffff" stroke="#000000" stroke-width="0"><rect x="0" y="0" width="78.4609375" height="26" rx="5" ry="5" stroke="none"/><text xml:space="preserve" x="5" y="17.5" stroke="none" text-anchor="left" font-family="sans-serif" font-size="16" font-weight="normal" fill="#000000">hasDriver</text></g></g></g></g><g class="node"><g fill="#ffffff" stroke="#000000" stroke-width="4"><circle cx="-66" cy="0" r="52"/></g><g transform="translate(-66 0)"><g transform="scale(0.58203166796875) translate(0 0)"><g transform="translate(0 0)"><g font-family="sans-serif" font-size="50" font-weight="normal" fill="#000000" text-anchor="middle"><text xml:space="preserve" x="0" y="13" stroke="none">Circuit</text></g></g></g></g></g><g class="node"><g fill="#ffffff" stroke="#000000" stroke-width="4"><circle cx="756.7214000954496" cy="0" r="52"/></g><g transform="translate(756.7214000954496 0)"><g transform="scale(0.45312554687499995) translate(0 0)"><g transform="translate(0 0)"><g font-family="sans-serif" font-size="50" font-weight="normal" fill="#000000" text-anchor="middle"><text xml:space="preserve" x="0" y="13" stroke="none">Location</text></g></g></g></g></g><g class="node"><g fill="#ffffff" stroke="#000000" stroke-width="4"><circle cx="756.7214000954496" cy="742.7330806359327" r="52"/></g><g transform="translate(756.7214000954496 742.7330806359327)"><g transform="scale(0.484375515625) translate(0 0)"><g transform="translate(0 0)"><g font-family="sans-serif" font-size="50" font-weight="normal" fill="#000000" text-anchor="middle"><text xml:space="preserve" x="0" y="13" stroke="none">Country</text></g></g></g></g></g><g class="node"><g fill="#ffffff" stroke="#000000" stroke-width="1"><circle cx="-284.5247827359775" cy="0" r="50.5"/></g><g transform="translate(-284.5247827359775 0)"><g transform="scale(0.6132816367187499) translate(0 0)"><g transform="translate(0 0)"><g font-family="sans-serif" font-size="50" font-weight="normal" fill="#000000" text-anchor="middle"><text xml:space="preserve" x="0" y="13" stroke="none">Name</text></g></g></g></g></g><g class="node"><g fill="#ffffff" stroke="#000000" stroke-width="4"><circle cx="-66" cy="300" r="52"/></g><g transform="translate(-66 300)"><g transform="scale(0.6835940664062501) translate(0 0)"><g transform="translate(0 0)"><g font-family="sans-serif" font-size="50" font-weight="normal" fill="#000000" text-anchor="middle"><text xml:space="preserve" x="0" y="13" stroke="none">Race</text></g></g></g></g></g><g class="node"><g fill="#ffffff" stroke="#000000" stroke-width="4"><circle cx="-508.7330806359327" cy="742.7330806359327" r="52"/></g><g transform="translate(-508.7330806359327 742.7330806359327)"><g transform="scale(0.6132816367187499) translate(0 0)"><g transform="translate(0 0)"><g font-family="sans-serif" font-size="50" font-weight="normal" fill="#000000" text-anchor="middle"><text xml:space="preserve" x="0" y="13" stroke="none">Driver</text></g></g></g></g></g><g class="node"><g fill="#ffffff" stroke="#000000" stroke-width="4"><circle cx="527.7109435422165" cy="580.5961207407668" r="52"/></g><g transform="translate(527.7109435422165 580.5961207407668)"><g transform="scale(0.37304750195312497) translate(0 0)"><g transform="translate(0 0)"><g font-family="sans-serif" font-size="50" font-weight="normal" fill="#000000" text-anchor="middle"><text xml:space="preserve" x="0" y="13" stroke="none">Contructor</text></g></g></g></g></g><g class="node"><g fill="#ffffff" stroke="#000000" stroke-width="4"><circle cx="527.7109435422165" cy="300" r="52"/></g><g transform="translate(527.7109435422165 300)"><g transform="scale(0.5273442226562499) translate(0 0)"><g transform="translate(0 0)"><g font-family="sans-serif" font-size="50" font-weight="normal" fill="#000000" text-anchor="middle"><text xml:space="preserve" x="0" y="13" stroke="none">LineUp</text></g></g></g></g></g><g class="node"><g fill="#ffffff" stroke="#000000" stroke-width="4"><circle cx="224.74481279157214" cy="299.99999999999994" r="52"/></g><g transform="translate(224.74481279157214 299.99999999999994)"><g transform="scale(0.5000005) translate(0 0)"><g transform="translate(0 0)"><g font-family="sans-serif" font-size="50" font-weight="normal" fill="#000000" text-anchor="middle"><text xml:space="preserve" x="0" y="13" stroke="none">Season</text></g></g></g></g></g><g class="node"><g fill="#ffffff" stroke="#000000" stroke-width="4"><circle cx="-287.36654031796644" cy="427.80603164215404" r="52"/></g><g transform="translate(-287.36654031796644 427.80603164215404)"><g transform="scale(0.5390629609375) translate(0 0)"><g transform="translate(0 0)"><g font-family="sans-serif" font-size="50" font-weight="normal" fill="#000000" text-anchor="middle"><text xml:space="preserve" x="0" y="13" stroke="none">Qualify</text></g></g></g></g></g><g class="node"><g fill="#ffffff" stroke="#000000" stroke-width="1"><circle cx="-508.7330806359327" cy="109.59760363850944" r="50.5"/></g><g transform="translate(-508.7330806359327 109.59760363850944)"><g transform="scale(0.58203166796875) translate(0 0)"><g transform="translate(0 0)"><g font-family="sans-serif" font-size="50" font-weight="normal" fill="#000000" text-anchor="middle"><text xml:space="preserve" x="0" y="13" stroke="none">Result</text></g></g></g></g></g><g class="node"><g fill="#ffffff" stroke="#000000" stroke-width="4"><circle cx="-287.36654031796644" cy="172.19396835784593" r="52"/></g><g transform="translate(-287.36654031796644 172.19396835784593)"><g transform="scale(0.6250003749999999) translate(0 0)"><g transform="translate(0 0)"><g font-family="sans-serif" font-size="50" font-weight="normal" fill="#000000" text-anchor="middle"><text xml:space="preserve" x="0" y="13" stroke="none">Sprint</text></g></g></g></g></g><g class="node"><g fill="#ffffff" stroke="#000000" stroke-width="4"><circle cx="-508.7330806359327" cy="299.99999999999994" r="52"/></g><g transform="translate(-508.7330806359327 299.99999999999994)"><g transform="scale(0.30078194921875) translate(0 0)"><g transform="translate(0 0)"><g font-family="sans-serif" font-size="50" font-weight="normal" fill="#000000" text-anchor="middle"><text xml:space="preserve" x="0" y="13" stroke="none">Partecipation</text></g></g></g></g></g><g class="node"><g fill="#ffffff" stroke="#000000" stroke-width="1"><circle cx="527.7109435422165" cy="109.59760363850944" r="50.5"/></g><g transform="translate(527.7109435422165 109.59760363850944)"><g transform="scale(0.58203166796875) translate(0 0)"><g transform="translate(0 0)"><g font-family="sans-serif" font-size="50" font-weight="normal" fill="#000000" text-anchor="middle"><text xml:space="preserve" x="0" y="13" stroke="none">Result</text></g></g></g></g></g><g class="node"><g fill="#ffffff" stroke="#000000" stroke-width="1"><circle cx="-699.1354769974232" cy="299.9999999999999" r="50.5"/></g><g transform="translate(-699.1354769974232 299.9999999999999)"><g transform="scale(0.56640668359375) translate(0 0)"><g transform="translate(0 0)"><g font-family="sans-serif" font-size="50" font-weight="normal" fill="#000000" text-anchor="middle"><text xml:space="preserve" x="0" y="-17" stroke="none">Pit</text><text xml:space="preserve" x="0" y="43" stroke="none" text-anchor="middle">Stop</text></g></g></g></g></g><g class="node"><g fill="#ffffff" stroke="#000000" stroke-width="1"><circle cx="279.0325132871694" cy="580.5961207407668" r="50.5"/></g><g transform="translate(279.0325132871694 580.5961207407668)"><g transform="scale(0.6132816367187499) translate(0 0)"><g transform="translate(0 0)"><g font-family="sans-serif" font-size="50" font-weight="normal" fill="#000000" text-anchor="middle"><text xml:space="preserve" x="0" y="13" stroke="none">Name</text></g></g></g></g></g><g class="node"><g fill="#ffffff" stroke="#000000" stroke-width="1"><circle cx="-699.1354769974232" cy="742.7330806359327" r="50.5"/></g><g transform="translate(-699.1354769974232 742.7330806359327)"><g transform="scale(0.30078194921875) translate(0 0)"><g transform="translate(0 0)"><g font-family="sans-serif" font-size="50" font-weight="normal" fill="#000000" text-anchor="middle"><text xml:space="preserve" x="0" y="-77" stroke="none">Number</text><text xml:space="preserve" x="0" y="-17" stroke="none" text-anchor="middle">Code Name</text><text xml:space="preserve" x="0" y="43" stroke="none" text-anchor="middle">Surname</text><text xml:space="preserve" x="0" y="103" stroke="none" text-anchor="middle">Birth</text></g></g></g></g></g><g class="node"><g fill="#ffffff" stroke="#000000" stroke-width="1"><circle cx="-643.3679062573113" cy="165.3651743786213" r="50.5"/></g><g transform="translate(-643.3679062573113 165.3651743786213)"><g transform="scale(0.5859379140625001) translate(0 0)"><g transform="translate(0 0)"><g font-family="sans-serif" font-size="50" font-weight="normal" fill="#000000" text-anchor="middle"><text xml:space="preserve" x="0" y="-17" stroke="none">Lap</text><text xml:space="preserve" x="0" y="43" stroke="none" text-anchor="middle">time</text></g></g></g></g></g></g></svg>