<svg xmlns="http://www.w3.org/2000/svg" width="1444" height="925" viewBox="0 0 1444 925"><defs><style type="text/css"/></defs><g transform="translate(1164.7203619616942 312.7385066506161) scale(1)"><g class="relationship"><g transform="translate(-66 -30) rotate(-90)" stroke-width="5" stroke="#000000"><path d="M 59 0 L 144.87635603286782 0"/><polygon points="-24.8621506177483,0 -27.62461179749811,9.20820393249937 0,0 -27.62461179749811,-9.20820393249937" fill="#000000" transform="translate(169.7385066506161 0) rotate(0)" stroke="none"/></g><g transform="translate(-66 -131.9381780164339) rotate(90) translate(0 -13)"><g transform="translate(0 0)"><g transform="translate(-48.14453125 0)" fill="#ffffff" stroke="#000000" stroke-width="0"><rect x="0" y="0" width="96.2890625" height="26" rx="5" ry="5" stroke="none"/><text xml:space="preserve" x="5" y="17.5" stroke="none" text-anchor="left" font-family="sans-serif" font-size="16" font-weight="normal" fill="#000000">hasLocation</text></g></g></g></g><g class="relationship"><g transform="translate(-66 -258.7385066506161) rotate(180)" stroke-width="5" stroke="#000000"><path d="M 59 0 L 960.8582113439459 0"/><polygon points="-24.8621506177483,0 -27.62461179749811,9.20820393249937 0,0 -27.62461179749811,-9.20820393249937" fill="#000000" transform="translate(985.7203619616942 0) rotate(0)" stroke="none"/></g><g transform="translate(-575.9291056719729 -258.73850665061605) rotate(360) translate(0 -13)"><g transform="translate(0 0)"><g transform="translate(-45.91015625 0)" fill="#ffffff" stroke="#000000" stroke-width="0"><rect x="0" y="0" width="91.8203125" height="26" rx="5" ry="5" stroke="none"/><text xml:space="preserve" x="5" y="17.5" stroke="none" text-anchor="left" font-family="sans-serif" font-size="16" font-weight="normal" fill="#000000">hasCountry</text></g></g></g></g><g class="relationship"><g transform="translate(-66 -30) rotate(0)" stroke-width="5" stroke="#000000"><path d="M 59 0 L 229.88266217382383 0"/><polygon points="-24.8621506177483,0 -27.62461179749811,9.20820393249937 0,0 -27.62461179749811,-9.20820393249937" fill="#000000" transform="translate(254.74481279157214 0) rotate(0)" stroke="none"/></g><g transform="translate(78.44133108691193 -30) rotate(0) translate(0 -13)"><g transform="translate(0 0)"><g transform="translate(-39.23828125 0)" fill="#ffffff" stroke="#000000" stroke-width="0"><rect x="0" y="0" width="78.4765625" height="26" rx="5" ry="5" stroke="none"/><text xml:space="preserve" x="5" y="17.5" stroke="none" text-anchor="left" font-family="sans-serif" font-size="16" font-weight="normal" fill="#000000">hasName</text></g></g></g></g><g class="relationship"><g transform="translate(-66 300) rotate(-90)" stroke-width="5" stroke="#000000"><path d="M 59 0 L 246.1378493822517 0"/><polygon points="-24.8621506177483,0 -27.62461179749811,9.20820393249937 0,0 -27.62461179749811,-9.20820393249937" fill="#000000" transform="translate(271 0) rotate(0)" stroke="none"/></g><g transform="translate(-65.99999999999999 147.43107530887414) rotate(90) translate(0 -13)"><g transform="translate(0 0)"><g transform="translate(-40.56640625 0)" fill="#ffffff" stroke="#000000" stroke-width="0"><rect x="0" y="0" width="81.1328125" height="26" rx="5" ry="5" stroke="none"/><text xml:space="preserve" x="5" y="17.5" stroke="none" text-anchor="left" font-family="sans-serif" font-size="16" font-weight="normal" fill="#000000">hasCircuit</text></g></g></g></g><g class="relationship"><g transform="translate(-66 300) rotate(-1.1201878246933418e-14)" stroke-width="5" stroke="#000000"><path d="M 59 0 L 206.88266217382383 0"/><polygon points="-24.8621506177483,0 -27.62461179749811,9.20820393249937 0,0 -27.62461179749811,-9.20820393249937" fill="#000000" transform="translate(231.74481279157214 0) rotate(0)" stroke="none"/></g><g transform="translate(66.94133108691193 300) rotate(-1.1201878246933418e-14) translate(0 -13)"><g transform="translate(0 0)"><g transform="translate(-38.359375 0)" fill="#ffffff" stroke="#000000" stroke-width="0"><rect x="0" y="0" width="76.71875" height="26" rx="5" ry="5" stroke="none"/><text xml:space="preserve" x="5" y="17.5" stroke="none" text-anchor="left" font-family="sans-serif" font-size="16" font-weight="normal" fill="#000000">inSeason</text></g></g></g></g><g class="relationship"><g transform="translate(-66 300) rotate(147.9451139016776)" stroke-width="5" stroke="#000000"><path d="M 59 0 L 156.94899346837673 0"/><polygon points="-24.8621506177483,0 -27.62461179749811,9.20820393249937 0,0 -27.62461179749811,-9.20820393249937" fill="#000000" transform="translate(181.81114408612504 0) rotate(0)" stroke="none"/></g><g transform="translate(-157.51271301785897 357.3054561199214) rotate(327.9451139016776) translate(0 -13)"><g transform="translate(0 0)"><g transform="translate(-23.234375 0)" fill="#ffffff" stroke="#000000" stroke-width="0"><rect x="0" y="0" width="46.46875" height="26" rx="5" ry="5" stroke="none"/><text xml:space="preserve" x="5" y="17.5" stroke="none" text-anchor="left" font-family="sans-serif" font-size="16" font-weight="normal" fill="#000000">hasA</text></g></g></g></g><g class="relationship"><g transform="translate(-66 300) rotate(180)" stroke-width="5" stroke="#000000"><path d="M 59 0 L 120.23494440745218 0"/><polygon points="-24.8621506177483,0 -27.62461179749811,9.20820393249937 0,0 -27.62461179749811,-9.20820393249937" fill="#000000" transform="translate(145.09709502520047 0) rotate(0)" stroke="none"/></g><g transform="translate(-155.6174722037261 300) rotate(360) translate(0 -13)"><g transform="translate(0 0)"><g transform="translate(-23.234375 0)" fill="#ffffff" stroke="#000000" stroke-width="0"><rect x="0" y="0" width="46.46875" height="26" rx="5" ry="5" stroke="none"/><text xml:space="preserve" x="5" y="17.5" stroke="none" text-anchor="left" font-family="sans-serif" font-size="16" font-weight="normal" fill="#000000">hasA</text></g></g></g></g><g class="relationship"><g transform="translate(-724.1354769974232 300.5100238053506) rotate(-124.65446752111885)" stroke-width="5" stroke="#000000"><path d="M 59 0 L 256.06680964453835 0"/><polygon points="-24.8621506177483,0 -27.62461179749811,9.20820393249937 0,0 -27.62461179749811,-9.20820393249937" fill="#000000" transform="translate(280.92896026228664 0) rotate(0)" stroke="none"/></g><g transform="translate(-813.7130657004521 170.923646291941) rotate(55.34553247888114) translate(0 -13)"><g transform="translate(0 0)"><g transform="translate(-39.23046875 0)" fill="#ffffff" stroke="#000000" stroke-width="0"><rect x="0" y="0" width="78.4609375" height="26" rx="5" ry="5" stroke="none"/><text xml:space="preserve" x="5" y="17.5" stroke="none" text-anchor="left" font-family="sans-serif" font-size="16" font-weight="normal" fill="#000000">hasDriver</text></g></g></g></g><g class="relationship"><g transform="translate(-1110.7203619616942 299.99999999999994) rotate(90)" stroke-width="5" stroke="#000000"><path d="M 59 0 L 125.94388569643671 0"/><polygon points="-24.8621506177483,0 -27.62461179749811,9.20820393249937 0,0 -27.62461179749811,-9.20820393249937" fill="#000000" transform="translate(150.806036314185 0) rotate(0)" stroke="none"/></g><g transform="translate(-1110.7203619616942 392.4719428482183) rotate(270) translate(0 -13)"><g transform="translate(0 0)"><g transform="translate(-39.23828125 0)" fill="#ffffff" stroke="#000000" stroke-width="0"><rect x="0" y="0" width="78.4765625" height="26" rx="5" ry="5" stroke="none"/><text xml:space="preserve" x="5" y="17.5" stroke="none" text-anchor="left" font-family="sans-serif" font-size="16" font-weight="normal" fill="#000000">hasName</text></g></g></g></g><g class="relationship"><g transform="translate(-1110.7203619616942 299.99999999999994) rotate(-90)" stroke-width="5" stroke="#000000"><path d="M 59 0 L 474.87635603286776 0"/><polygon points="-24.8621506177483,0 -27.62461179749811,9.20820393249937 0,0 -27.62461179749811,-9.20820393249937" fill="#000000" transform="translate(499.73850665061605 0) rotate(0)" stroke="none"/></g><g transform="translate(-1110.7203619616942 33.06182198356606) rotate(90) translate(0 -13)"><g transform="translate(0 0)"><g transform="translate(-55.25 0)" fill="#ffffff" stroke="#000000" stroke-width="0"><rect x="0" y="0" width="110.5" height="26" rx="5" ry="5" stroke="none"/><text xml:space="preserve" x="5" y="17.5" stroke="none" text-anchor="left" font-family="sans-serif" font-size="16" font-weight="normal" fill="#000000">hasNationality</text></g></g></g></g><g class="relationship"><g transform="translate(-917.4279194795585 20.885758577367113) rotate(-124.65446752111896)" stroke-width="5" stroke="#000000"><path d="M 59 0 L 256.06680964453835 0"/><polygon points="-24.8621506177483,0 -27.62461179749811,9.20820393249937 0,0 -27.62461179749811,-9.20820393249937" fill="#000000" transform="translate(280.92896026228664 0) rotate(0)" stroke="none"/></g><g transform="translate(-1007.0055081825876 -108.70061893604236) rotate(55.34553247888104) translate(0 -13)"><g transform="translate(0 0)"><g transform="translate(-55.25 0)" fill="#ffffff" stroke="#000000" stroke-width="0"><rect x="0" y="0" width="110.5" height="26" rx="5" ry="5" stroke="none"/><text xml:space="preserve" x="5" y="17.5" stroke="none" text-anchor="left" font-family="sans-serif" font-size="16" font-weight="normal" fill="#000000">hasNationality</text></g></g></g></g><g class="relationship"><g transform="translate(-917.4279194795585 20.885758577367113) rotate(90)" stroke-width="5" stroke="#000000"><path d="M 59 0 L 106.12089946349371 0"/><polygon points="-24.8621506177483,0 -27.62461179749811,9.20820393249937 0,0 -27.62461179749811,-9.20820393249937" fill="#000000" transform="translate(130.983050081242 0) rotate(0)" stroke="none"/></g></g><g class="relationship"><g transform="translate(-503.65232382339366 299.99999999999994) rotate(179.8674630739121)" stroke-width="5" stroke="#000000"><path d="M 59 0 L 136.62159245154152 0"/><polygon points="-24.8621506177483,0 -27.62461179749811,9.20820393249937 0,0 -27.62461179749811,-9.20820393249937" fill="#000000" transform="translate(161.4837430692898 0) rotate(0)" stroke="none"/></g><g transform="translate(-601.4628583603692 300.22625629355247) rotate(359.86746307391206) translate(0 -13)"><g transform="translate(0 0)"><g transform="translate(-36.125 0)" fill="#ffffff" stroke="#000000" stroke-width="0"><rect x="0" y="0" width="72.25" height="26" rx="5" ry="5" stroke="none"/><text xml:space="preserve" x="5" y="17.5" stroke="none" text-anchor="left" font-family="sans-serif" font-size="16" font-weight="normal" fill="#000000">subclass</text></g></g></g></g><g class="relationship"><g transform="translate(-503.65232382339366 427.80603164215404) rotate(-150.00000000000003)" stroke-width="5" stroke="#000000"><path d="M 59 0 L 170.72986505585857 0"/><polygon points="-24.8621506177483,0 -27.62461179749811,9.20820393249937 0,0 -27.62461179749811,-9.20820393249937" fill="#000000" transform="translate(195.59201567360688 0) rotate(0)" stroke="none"/></g><g transform="translate(-603.1282733965659 370.3735653781894) rotate(29.999999999999993) translate(0 -13)"><g transform="translate(0 0)"><g transform="translate(-36.125 0)" fill="#ffffff" stroke="#000000" stroke-width="0"><rect x="0" y="0" width="72.25" height="26" rx="5" ry="5" stroke="none"/><text xml:space="preserve" x="5" y="17.5" stroke="none" text-anchor="left" font-family="sans-serif" font-size="16" font-weight="normal" fill="#000000">subclass</text></g></g></g></g><g class="relationship"><g transform="translate(-503.65232382339366 154.41313225934795) rotate(146.47068651222577)" stroke-width="5" stroke="#000000"><path d="M 59 0 L 180.63193731800698 0"/><polygon points="-24.8621506177483,0 -27.62461179749811,9.20820393249937 0,0 -27.62461179749811,-9.20820393249937" fill="#000000" transform="translate(205.49408793575526 0) rotate(0)" stroke="none"/></g><g transform="translate(-603.5313146042934 220.59510522997076) rotate(326.47068651222577) translate(0 -13)"><g transform="translate(0 0)"><g transform="translate(-36.125 0)" fill="#ffffff" stroke="#000000" stroke-width="0"><rect x="0" y="0" width="72.25" height="26" rx="5" ry="5" stroke="none"/><text xml:space="preserve" x="5" y="17.5" stroke="none" text-anchor="left" font-family="sans-serif" font-size="16" font-weight="normal" fill="#000000">subclass</text></g></g></g></g><g class="relationship"><g transform="translate(-503.65232382339366 427.80603164215404) rotate(0.0000011461428389329785)" stroke-width="5" stroke="#000000"><path d="M 59 0 L 149.69307818044496 0"/><polygon points="-24.8621506177483,0 -27.62461179749811,9.20820393249937 0,0 -27.62461179749811,-9.20820393249937" fill="#000000" transform="translate(174.55522879819324 0) rotate(0)" stroke="none"/></g><g transform="translate(-399.3057847331712 427.80603372949867) rotate(0.0000011461428389329785) translate(0 -13)"><g transform="translate(0 0)"><g transform="translate(-37.01953125 0)" fill="#ffffff" stroke="#000000" stroke-width="0"><rect x="0" y="0" width="74.0390625" height="26" rx="5" ry="5" stroke="none"/><text xml:space="preserve" x="5" y="17.5" stroke="none" text-anchor="left" font-family="sans-serif" font-size="16" font-weight="normal" fill="#000000">pInQualif</text></g></g></g></g><g class="relationship"><g transform="translate(-503.65232382339366 154.41313225934795) rotate(18.399919488027873)" stroke-width="5" stroke="#000000"><path d="M 59 0 L 377.3699954936765 0"/><polygon points="-24.8621506177483,0 -27.62461179749811,9.20820393249937 0,0 -27.62461179749811,-9.20820393249937" fill="#000000" transform="translate(402.2321461114248 0) rotate(0)" stroke="none"/></g><g transform="translate(-296.6217165850219 223.28272575530872) rotate(18.399919488027873) translate(0 -13)"><g transform="translate(0 0)"><g transform="translate(-74.37890625 0)" fill="#ffffff" stroke="#000000" stroke-width="0"><rect x="0" y="0" width="148.7578125" height="26" rx="5" ry="5" stroke="none"/><text xml:space="preserve" x="5" y="17.5" stroke="none" text-anchor="left" font-family="sans-serif" font-size="16" font-weight="normal" fill="#000000">partecipatedInRace</text></g></g></g></g><g class="relationship"><g transform="translate(-503.65232382339366 299.99999999999994) rotate(2.7889660279306383e-14)" stroke-width="5" stroke="#000000"><path d="M 59 0 L 149.6930781804449 0"/><polygon points="-24.8621506177483,0 -27.62461179749811,9.20820393249937 0,0 -27.62461179749811,-9.20820393249937" fill="#000000" transform="translate(174.55522879819318 0) rotate(0)" stroke="none"/></g><g transform="translate(-399.3057847331712 300) rotate(2.7889660279306383e-14) translate(0 -13)"><g transform="translate(0 0)"><g transform="translate(-37.01953125 0)" fill="#ffffff" stroke="#000000" stroke-width="0"><rect x="0" y="0" width="74.0390625" height="26" rx="5" ry="5" stroke="none"/><text xml:space="preserve" x="5" y="17.5" stroke="none" text-anchor="left" font-family="sans-serif" font-size="16" font-weight="normal" fill="#000000">pInSprint</text></g></g></g></g><g class="relationship"><g transform="translate(-503.65232382339366 -30) rotate(-90)" stroke-width="5" stroke="#000000"><path d="M 59 0 L 101.13784938225172 0"/><polygon points="-24.8621506177483,0 -27.62461179749811,9.20820393249937 0,0 -27.62461179749811,-9.20820393249937" fill="#000000" transform="translate(126 0) rotate(0)" stroke="none"/></g></g><g class="relationship"><g transform="translate(-503.65232382339366 427.80603164215404) rotate(90)" stroke-width="5" stroke="#000000"><path d="M 59 0 L 91.92793848086443 0"/><polygon points="-24.8621506177483,0 -27.62461179749811,9.20820393249937 0,0 -27.62461179749811,-9.20820393249937" fill="#000000" transform="translate(116.79008909861273 0) rotate(0)" stroke="none"/></g></g><g class="relationship"><g transform="translate(-688.0654560827415 -35.18886984839165) rotate(-90)" stroke-width="5" stroke="#000000"><path d="M 59 0 L 95.94897953386007 0"/><polygon points="-24.8621506177483,0 -27.62461179749811,9.20820393249937 0,0 -27.62461179749811,-9.20820393249937" fill="#000000" transform="translate(120.81113015160835 0) rotate(0)" stroke="none"/></g></g><g class="relationship"><g transform="translate(-503.65232382339366 154.41313225934795) rotate(-90)" stroke-width="5" stroke="#000000"><path d="M 59 0 L 100.55098164159966 0"/><polygon points="-24.8621506177483,0 -27.62461179749811,9.20820393249937 0,0 -27.62461179749811,-9.20820393249937" fill="#000000" transform="translate(125.41313225934795 0) rotate(0)" stroke="none"/></g></g><g class="relationship"><g transform="translate(-503.65232382339366 154.41313225934795) rotate(-134.20516245557957)" stroke-width="5" stroke="#000000"><path d="M 59 0 L 180.63193731800698 0"/><polygon points="-24.8621506177483,0 -27.62461179749811,9.20820393249937 0,0 -27.62461179749811,-9.20820393249937" fill="#000000" transform="translate(205.49408793575526 0) rotate(0)" stroke="none"/></g></g><g class="relationship"><g transform="translate(-724.1354769974232 300.5100238053506) rotate(-179.92440937118872)" stroke-width="5" stroke="#000000"><path d="M 59 0 L 302.7230707851405 0"/><polygon points="-24.8621506177483,0 -27.62461179749811,9.20820393249937 0,0 -27.62461179749811,-9.20820393249937" fill="#000000" transform="translate(327.58522140288886 0) rotate(0)" stroke="none"/></g><g transform="translate(-904.9968549892403 300.2714122821585) rotate(0.07559062881129616) translate(0 -13)"><g transform="translate(0 0)"><g transform="translate(-59.24609375 0)" fill="#ffffff" stroke="#000000" stroke-width="0"><rect x="0" y="0" width="118.4921875" height="26" rx="5" ry="5" stroke="none"/><text xml:space="preserve" x="5" y="17.5" stroke="none" text-anchor="left" font-family="sans-serif" font-size="16" font-weight="normal" fill="#000000">hasConstructor</text></g></g></g></g><g class="relationship"><g transform="translate(-503.65232382339366 154.41313225934795) rotate(-45.79483754442042)" stroke-width="5" stroke="#000000"><path d="M 59 0 L 180.63193731800703 0"/><polygon points="-24.8621506177483,0 -27.62461179749811,9.20820393249937 0,0 -27.62461179749811,-9.20820393249937" fill="#000000" transform="translate(205.49408793575532 0) rotate(0)" stroke="none"/></g><g transform="translate(-420.11307253978214 68.52332005400592) rotate(-45.79483754442042) translate(0 -13)"><g transform="translate(0 0)"><g transform="translate(-40.578125 0)" fill="#ffffff" stroke="#000000" stroke-width="0"><rect x="0" y="0" width="81.15625" height="26" rx="5" ry="5" stroke="none"/><text xml:space="preserve" x="5" y="17.5" stroke="none" text-anchor="left" font-family="sans-serif" font-size="16" font-weight="normal" fill="#000000">hasStatus</text></g></g></g></g><g class="relationship"><g transform="translate(-503.65232382339366 299.99999999999994) rotate(-61.18143055854656)" stroke-width="5" stroke="#000000"><path d="M 59 0 L 298.7078192177653 0"/><polygon points="-24.8621506177483,0 -27.62461179749811,9.20820393249937 0,0 -27.62461179749811,-9.20820393249937" fill="#000000" transform="translate(323.5699698355136 0) rotate(0)" stroke="none"/></g><g transform="translate(-417.4380041213391 143.29705790670582) rotate(-61.18143055854656) translate(0 -13)"><g transform="translate(0 0)"><g transform="translate(-40.578125 0)" fill="#ffffff" stroke="#000000" stroke-width="0"><rect x="0" y="0" width="81.15625" height="26" rx="5" ry="5" stroke="none"/><text xml:space="preserve" x="5" y="17.5" stroke="none" text-anchor="left" font-family="sans-serif" font-size="16" font-weight="normal" fill="#000000">hasStatus</text></g></g></g></g><g class="node"><g fill="#ffffff" stroke="#000000" stroke-width="4"><circle cx="-66" cy="-30" r="52"/></g><g transform="translate(-66 -30)"><g transform="scale(0.58203166796875) translate(0 0)"><g transform="translate(0 0)"><g font-family="sans-serif" font-size="50" font-weight="normal" fill="#000000" text-anchor="middle"><text xml:space="preserve" x="0" y="13" stroke="none">Circuit</text></g></g></g></g></g><g class="node"><g fill="#ffffff" stroke="#000000" stroke-width="4"><circle cx="-66" cy="-258.7385066506161" r="52"/></g><g transform="translate(-66 -258.7385066506161)"><g transform="scale(0.45312554687499995) translate(0 0)"><g transform="translate(0 0)"><g font-family="sans-serif" font-size="50" font-weight="normal" fill="#000000" text-anchor="middle"><text xml:space="preserve" x="0" y="13" stroke="none">Location</text></g></g></g></g></g><g class="node"><g fill="#ffffff" stroke="#000000" stroke-width="4"><circle cx="-1110.7203619616942" cy="-258.7385066506161" r="52"/></g><g transform="translate(-1110.7203619616942 -258.7385066506161)"><g transform="scale(0.484375515625) translate(0 0)"><g transform="translate(0 0)"><g font-family="sans-serif" font-size="50" font-weight="normal" fill="#000000" text-anchor="middle"><text xml:space="preserve" x="0" y="13" stroke="none">Country</text></g></g></g></g></g><g class="node"><g fill="#ffffff" stroke="#000000" stroke-width="1"><circle cx="224.74481279157214" cy="-30" r="30.5"/></g><g transform="translate(224.74481279157214 -30)"><g transform="scale(0.341797533203125) translate(0 0)"><g transform="translate(0 0)"><g font-family="sans-serif" font-size="50" font-weight="normal" fill="#000000" text-anchor="middle"><text xml:space="preserve" x="0" y="13" stroke="none">Name</text></g></g></g></g></g><g class="node"><g fill="#ffffff" stroke="#000000" stroke-width="4"><circle cx="-66" cy="300" r="52"/></g><g transform="translate(-66 300)"><g transform="scale(0.6835940664062501) translate(0 0)"><g transform="translate(0 0)"><g font-family="sans-serif" font-size="50" font-weight="normal" fill="#000000" text-anchor="middle"><text xml:space="preserve" x="0" y="13" stroke="none">Race</text></g></g></g></g></g><g class="node"><g fill="#ffffff" stroke="#000000" stroke-width="4"><circle cx="-917.4279194795585" cy="20.885758577367113" r="52"/></g><g transform="translate(-917.4279194795585 20.885758577367113)"><g transform="scale(0.6132816367187499) translate(0 0)"><g transform="translate(0 0)"><g font-family="sans-serif" font-size="50" font-weight="normal" fill="#000000" text-anchor="middle"><text xml:space="preserve" x="0" y="13" stroke="none">Driver</text></g></g></g></g></g><g class="node"><g fill="#ffffff" stroke="#000000" stroke-width="4"><circle cx="-1110.7203619616942" cy="299.99999999999994" r="52"/></g><g transform="translate(-1110.7203619616942 299.99999999999994)"><g transform="scale(0.37304750195312497) translate(0 0)"><g transform="translate(0 0)"><g font-family="sans-serif" font-size="50" font-weight="normal" fill="#000000" text-anchor="middle"><text xml:space="preserve" x="0" y="13" stroke="none">Contructor</text></g></g></g></g></g><g class="node"><g fill="#ffffff" stroke="#000000" stroke-width="4"><circle cx="224.74481279157214" cy="299.99999999999994" r="52"/></g><g transform="translate(224.74481279157214 299.99999999999994)"><g transform="scale(0.5000005) translate(0 0)"><g transform="translate(0 0)"><g font-family="sans-serif" font-size="50" font-weight="normal" fill="#000000" text-anchor="middle"><text xml:space="preserve" x="0" y="13" stroke="none">Season</text></g></g></g></g></g><g class="node"><g fill="#ffffff" stroke="#000000" stroke-width="4"><circle cx="-270.0970950252005" cy="427.80603631418495" r="52"/></g><g transform="translate(-270.0970950252005 427.80603631418495)"><g transform="scale(0.31836005664062494) translate(0 0)"><g transform="translate(0 0)"><g font-family="sans-serif" font-size="50" font-weight="normal" fill="#000000" text-anchor="middle"><text xml:space="preserve" x="0" y="13" stroke="none">Qualification</text></g></g></g></g></g><g class="node"><g fill="#ffffff" stroke="#000000" stroke-width="4"><circle cx="-270.0970950252005" cy="300.00000000000006" r="52"/></g><g transform="translate(-270.0970950252005 300.00000000000006)"><g transform="scale(0.6250003749999999) translate(0 0)"><g transform="translate(0 0)"><g font-family="sans-serif" font-size="50" font-weight="normal" fill="#000000" text-anchor="middle"><text xml:space="preserve" x="0" y="13" stroke="none">Sprint</text></g></g></g></g></g><g class="node"><g fill="#ffffff" stroke="#000000" stroke-width="4"><circle cx="-724.1354769974232" cy="300.5100238053506" r="52"/></g><g transform="translate(-724.1354769974232 300.5100238053506)"><g transform="scale(0.30078194921875) translate(0 0)"><g transform="translate(0 0)"><g font-family="sans-serif" font-size="50" font-weight="normal" fill="#000000" text-anchor="middle"><text xml:space="preserve" x="0" y="13" stroke="none">Partecipation</text></g></g></g></g></g><g class="node"><g fill="#ffffff" stroke="#000000" stroke-width="4"><circle cx="-503.65232382339366" cy="-30" r="52"/></g><g transform="translate(-503.65232382339366 -30)"><g transform="scale(0.56640668359375) translate(0 0)"><g transform="translate(0 0)"><g font-family="sans-serif" font-size="50" font-weight="normal" fill="#000000" text-anchor="middle"><text xml:space="preserve" x="0" y="-17" stroke="none">Pit</text><text xml:space="preserve" x="0" y="43" stroke="none" text-anchor="middle">Stop</text></g></g></g></g></g><g class="node"><g fill="#ffffff" stroke="#000000" stroke-width="1"><circle cx="-1110.7203619616942" cy="486.80603631418495" r="30.5"/></g><g transform="translate(-1110.7203619616942 486.80603631418495)"><g transform="scale(0.341797533203125) translate(0 0)"><g transform="translate(0 0)"><g font-family="sans-serif" font-size="50" font-weight="normal" fill="#000000" text-anchor="middle"><text xml:space="preserve" x="0" y="13" stroke="none">Name</text></g></g></g></g></g><g class="node"><g fill="#ffffff" stroke="#000000" stroke-width="1"><circle cx="-917.4279194795585" cy="187.8688086586091" r="30.5"/></g><g transform="translate(-917.4279194795585 187.8688086586091)"><g transform="scale(0.1669930205078125) translate(0 0)"><g transform="translate(0 0)"><g font-family="sans-serif" font-size="50" font-weight="normal" fill="#000000" text-anchor="middle"><text xml:space="preserve" x="0" y="-77" stroke="none">Number</text><text xml:space="preserve" x="0" y="-17" stroke="none" text-anchor="middle">Code Name</text><text xml:space="preserve" x="0" y="43" stroke="none" text-anchor="middle">Surname</text><text xml:space="preserve" x="0" y="103" stroke="none" text-anchor="middle">Birth</text></g></g></g></g></g><g class="node"><g fill="#ffffff" stroke="#000000" stroke-width="4"><circle cx="-688.0654560827415" cy="-35.18886984839165" r="52"/></g><g transform="translate(-688.0654560827415 -35.18886984839165)"><g transform="scale(0.875000125) translate(0 0)"><g transform="translate(0 0)"><g font-family="sans-serif" font-size="50" font-weight="normal" fill="#000000" text-anchor="middle"><text xml:space="preserve" x="0" y="13" stroke="none">Lap</text></g></g></g></g></g><g class="node"><g fill="#ffffff" stroke="#000000" stroke-width="4"><circle cx="-503.65232382339366" cy="299.99999999999994" r="52"/></g><g transform="translate(-503.65232382339366 299.99999999999994)"><g transform="scale(0.306641318359375) translate(0 0)"><g transform="translate(0 0)"><g font-family="sans-serif" font-size="50" font-weight="normal" fill="#000000" text-anchor="middle"><text xml:space="preserve" x="0" y="-47" stroke="none">Sprint</text><text xml:space="preserve" x="0" y="13" stroke="none" text-anchor="middle">partecipation</text></g></g></g></g></g><g class="node"><g fill="#ffffff" stroke="#000000" stroke-width="4"><circle cx="-503.65232382339366" cy="427.80603164215404" r="52"/></g><g transform="translate(-503.65232382339366 427.80603164215404)"><g transform="scale(0.306641318359375) translate(0 0)"><g transform="translate(0 0)"><g font-family="sans-serif" font-size="50" font-weight="normal" fill="#000000" text-anchor="middle"><text xml:space="preserve" x="0" y="-47" stroke="none">Qualif.</text><text xml:space="preserve" x="0" y="13" stroke="none" text-anchor="middle">partecipation</text></g></g></g></g></g><g class="node"><g fill="#ffffff" stroke="#000000" stroke-width="4"><circle cx="-503.65232382339366" cy="154.41313225934795" r="52"/></g><g transform="translate(-503.65232382339366 154.41313225934795)"><g transform="scale(0.306641318359375) translate(0 0)"><g transform="translate(0 0)"><g font-family="sans-serif" font-size="50" font-weight="normal" fill="#000000" text-anchor="middle"><text xml:space="preserve" x="0" y="-47" stroke="none">Race</text><text xml:space="preserve" x="0" y="13" stroke="none" text-anchor="middle">partecipation</text></g></g></g></g></g><g class="node"><g fill="#ffffff" stroke="#000000" stroke-width="1"><circle cx="-503.65232382339366" cy="-192" r="30.5"/></g><g transform="translate(-503.65232382339366 -192)"><g transform="scale(0.23632888867187501) translate(0 0)"><g transform="translate(0 0)"><g font-family="sans-serif" font-size="50" font-weight="normal" fill="#000000" text-anchor="middle"><text xml:space="preserve" x="0" y="-47" stroke="none">Time</text><text xml:space="preserve" x="0" y="13" stroke="none" text-anchor="middle">Duration</text><text xml:space="preserve" x="0" y="73" stroke="none" text-anchor="middle">Lap</text></g></g></g></g></g><g class="node"><g fill="#ffffff" stroke="#000000" stroke-width="1"><circle cx="-503.65232382339366" cy="580.5961207407668" r="30.5"/></g><g transform="translate(-503.65232382339366 580.5961207407668)"><g transform="scale(0.19921955078124998) translate(0 0)"><g transform="translate(0 0)"><g font-family="sans-serif" font-size="50" font-weight="normal" fill="#000000" text-anchor="middle"><text xml:space="preserve" x="0" y="-17" stroke="none">Position</text><text xml:space="preserve" x="0" y="43" stroke="none" text-anchor="middle">Q1 Q2</text><text xml:space="preserve" x="0" y="103" stroke="none" text-anchor="middle">Q3</text></g></g></g></g></g><g class="node"><g fill="#ffffff" stroke="#000000" stroke-width="1"><circle cx="-688.0654560827415" cy="-192" r="30.5"/></g><g transform="translate(-688.0654560827415 -192)"><g transform="scale(0.23632888867187501) translate(0 0)"><g transform="translate(0 0)"><g font-family="sans-serif" font-size="50" font-weight="normal" fill="#000000" text-anchor="middle"><text xml:space="preserve" x="0" y="13" stroke="none">Position</text><text xml:space="preserve" x="0" y="73" stroke="none" text-anchor="middle">Time</text></g></g></g></g></g><g class="node"><g fill="#ffffff" stroke="#000000" stroke-width="4"><circle cx="-319.23919156404565" cy="-35.18886984839165" r="52"/></g><g transform="translate(-319.23919156404565 -35.18886984839165)"><g transform="scale(0.58203166796875) translate(0 0)"><g transform="translate(0 0)"><g font-family="sans-serif" font-size="50" font-weight="normal" fill="#000000" text-anchor="middle"><text xml:space="preserve" x="0" y="13" stroke="none">Status</text></g></g></g></g></g></g></svg>