<svg xmlns="http://www.w3.org/2000/svg" width="1721" height="881" viewBox="0 0 1721 881"><defs><style type="text/css"/></defs><g transform="translate(909.9528898081123 84) scale(1)"><g class="relationship"><g transform="translate(-66 -30) rotate(0)" stroke-width="5" stroke="#000000"><path d="M 59 0 L 738.8592494777013 0"/><polygon points="-24.8621506177483,0 -27.62461179749811,9.20820393249937 0,0 -27.62461179749811,-9.20820393249937" fill="#000000" transform="translate(763.7214000954496 0) rotate(0)" stroke="none"/></g><g transform="translate(332.92962473885063 -30) rotate(0) translate(0 -13)"><g transform="translate(0 0)"><g transform="translate(-48.14453125 0)" fill="#ffffff" stroke="#000000" stroke-width="0"><rect x="0" y="0" width="96.2890625" height="26" rx="5" ry="5" stroke="none"/><text xml:space="preserve" x="5" y="17.5" stroke="none" text-anchor="left" font-family="sans-serif" font-size="16" font-weight="normal" fill="#000000">hasLocation</text></g></g></g></g><g class="relationship"><g transform="translate(756.7214000954496 -30) rotate(90)" stroke-width="5" stroke="#000000"><path d="M 59 0 L 688.8709300181844 0"/><polygon points="-24.8621506177483,0 -27.62461179749811,9.20820393249937 0,0 -27.62461179749811,-9.20820393249937" fill="#000000" transform="translate(713.7330806359327 0) rotate(0)" stroke="none"/></g><g transform="translate(756.7214000954496 343.9354650090922) rotate(270) translate(0 -13)"><g transform="translate(0 0)"><g transform="translate(-45.91015625 0)" fill="#ffffff" stroke="#000000" stroke-width="0"><rect x="0" y="0" width="91.8203125" height="26" rx="5" ry="5" stroke="none"/><text xml:space="preserve" x="5" y="17.5" stroke="none" text-anchor="left" font-family="sans-serif" font-size="16" font-weight="normal" fill="#000000">hasCountry</text></g></g></g></g><g class="relationship"><g transform="translate(-66 -30) rotate(44.99999999999999)" stroke-width="5" stroke="#000000"><path d="M 59 0 L 167.87635603286782 0"/><polygon points="-24.8621506177483,0 -27.62461179749811,9.20820393249937 0,0 -27.62461179749811,-9.20820393249937" fill="#000000" transform="translate(192.7385066506161 0) rotate(0)" stroke="none"/></g><g transform="translate(14.21290492086716 50.212904920867146) rotate(44.99999999999999) translate(0 -13)"><g transform="translate(0 0)"><g transform="translate(-39.23828125 0)" fill="#ffffff" stroke="#000000" stroke-width="0"><rect x="0" y="0" width="78.4765625" height="26" rx="5" ry="5" stroke="none"/><text xml:space="preserve" x="5" y="17.5" stroke="none" text-anchor="left" font-family="sans-serif" font-size="16" font-weight="normal" fill="#000000">hasName</text></g></g></g></g><g class="relationship"><g transform="translate(-66 300) rotate(-90)" stroke-width="5" stroke="#000000"><path d="M 59 0 L 246.1378493822517 0"/><polygon points="-24.8621506177483,0 -27.62461179749811,9.20820393249937 0,0 -27.62461179749811,-9.20820393249937" fill="#000000" transform="translate(271 0) rotate(0)" stroke="none"/></g><g transform="translate(-65.99999999999999 147.43107530887414) rotate(90) translate(0 -13)"><g transform="translate(0 0)"><g transform="translate(-40.56640625 0)" fill="#ffffff" stroke="#000000" stroke-width="0"><rect x="0" y="0" width="81.1328125" height="26" rx="5" ry="5" stroke="none"/><text xml:space="preserve" x="5" y="17.5" stroke="none" text-anchor="left" font-family="sans-serif" font-size="16" font-weight="normal" fill="#000000">hasCircuit</text></g></g></g></g><g class="relationship"><g transform="translate(527.7109435422165 300) rotate(90)" stroke-width="5" stroke="#000000"><path d="M 59 0 L 196.73397012301845 0"/><polygon points="-24.8621506177483,0 -27.62461179749811,9.20820393249937 0,0 -27.62461179749811,-9.20820393249937" fill="#000000" transform="translate(221.59612074076676 0) rotate(0)" stroke="none"/></g><g transform="translate(527.7109435422165 427.86698506150924) rotate(270) translate(0 -13)"><g transform="translate(0 0)"><g transform="translate(-59.24609375 0)" fill="#ffffff" stroke="#000000" stroke-width="0"><rect x="0" y="0" width="118.4921875" height="26" rx="5" ry="5" stroke="none"/><text xml:space="preserve" x="5" y="17.5" stroke="none" text-anchor="left" font-family="sans-serif" font-size="16" font-weight="normal" fill="#000000">hasConstructor</text></g></g></g></g><g class="relationship"><g transform="translate(527.7109435422165 300) rotate(-180)" stroke-width="5" stroke="#000000"><path d="M 59 0 L 219.103980132896 0"/><polygon points="-24.8621506177483,0 -27.62461179749811,9.20820393249937 0,0 -27.62461179749811,-9.20820393249937" fill="#000000" transform="translate(243.9661307506443 0) rotate(0)" stroke="none"/></g><g transform="translate(388.65895347576844 300) rotate(0) translate(0 -13)"><g transform="translate(0 0)"><g transform="translate(-38.359375 0)" fill="#ffffff" stroke="#000000" stroke-width="0"><rect x="0" y="0" width="76.71875" height="26" rx="5" ry="5" stroke="none"/><text xml:space="preserve" x="5" y="17.5" stroke="none" text-anchor="left" font-family="sans-serif" font-size="16" font-weight="normal" fill="#000000">inSeason</text></g></g></g></g><g class="relationship"><g transform="translate(-66 300) rotate(-1.1201878246933418e-14)" stroke-width="5" stroke="#000000"><path d="M 59 0 L 206.88266217382383 0"/><polygon points="-24.8621506177483,0 -27.62461179749811,9.20820393249937 0,0 -27.62461179749811,-9.20820393249937" fill="#000000" transform="translate(231.74481279157214 0) rotate(0)" stroke="none"/></g><g transform="translate(66.94133108691193 300) rotate(-1.1201878246933418e-14) translate(0 -13)"><g transform="translate(0 0)"><g transform="translate(-38.359375 0)" fill="#ffffff" stroke="#000000" stroke-width="0"><rect x="0" y="0" width="76.71875" height="26" rx="5" ry="5" stroke="none"/><text xml:space="preserve" x="5" y="17.5" stroke="none" text-anchor="left" font-family="sans-serif" font-size="16" font-weight="normal" fill="#000000">inSeason</text></g></g></g></g><g class="relationship"><g transform="translate(-66 300) rotate(147.9451139016776)" stroke-width="5" stroke="#000000"><path d="M 59 0 L 156.94899346837673 0"/><polygon points="-24.8621506177483,0 -27.62461179749811,9.20820393249937 0,0 -27.62461179749811,-9.20820393249937" fill="#000000" transform="translate(181.81114408612504 0) rotate(0)" stroke="none"/></g><g transform="translate(-157.51271301785897 357.3054561199214) rotate(327.9451139016776) translate(0 -13)"><g transform="translate(0 0)"><g transform="translate(-23.234375 0)" fill="#ffffff" stroke="#000000" stroke-width="0"><rect x="0" y="0" width="46.46875" height="26" rx="5" ry="5" stroke="none"/><text xml:space="preserve" x="5" y="17.5" stroke="none" text-anchor="left" font-family="sans-serif" font-size="16" font-weight="normal" fill="#000000">hasA</text></g></g></g></g><g class="relationship"><g transform="translate(-66 300) rotate(180)" stroke-width="5" stroke="#000000"><path d="M 59 0 L 120.23494440745218 0"/><polygon points="-24.8621506177483,0 -27.62461179749811,9.20820393249937 0,0 -27.62461179749811,-9.20820393249937" fill="#000000" transform="translate(145.09709502520047 0) rotate(0)" stroke="none"/></g><g transform="translate(-155.6174722037261 300) rotate(360) translate(0 -13)"><g transform="translate(0 0)"><g transform="translate(-23.234375 0)" fill="#ffffff" stroke="#000000" stroke-width="0"><rect x="0" y="0" width="46.46875" height="26" rx="5" ry="5" stroke="none"/><text xml:space="preserve" x="5" y="17.5" stroke="none" text-anchor="left" font-family="sans-serif" font-size="16" font-weight="normal" fill="#000000">hasA</text></g></g></g></g><g class="relationship"><g transform="translate(-724.1354769974232 742.7330806359329) rotate(-90)" stroke-width="5" stroke="#000000"><path d="M 59 0 L 358.360906212834 0"/><polygon points="-24.8621506177483,0 -27.62461179749811,9.20820393249937 0,0 -27.62461179749811,-9.20820393249937" fill="#000000" transform="translate(383.22305683058227 0) rotate(0)" stroke="none"/></g><g transform="translate(-724.1354769974232 534.0526275295159) rotate(90) translate(0 -13)"><g transform="translate(0 0)"><g transform="translate(-49.03125 0)" fill="#ffffff" stroke="#000000" stroke-width="0"><rect x="0" y="0" width="98.0625" height="26" rx="5" ry="5" stroke="none"/><text xml:space="preserve" x="5" y="17.5" stroke="none" text-anchor="left" font-family="sans-serif" font-size="16" font-weight="normal" fill="#000000">partecipated</text></g></g></g></g><g class="relationship"><g transform="translate(527.7109435422165 300) rotate(-90)" stroke-width="5" stroke="#000000"><path d="M 59 0 L 129.54024574374228 0"/><polygon points="-24.8621506177483,0 -27.62461179749811,9.20820393249937 0,0 -27.62461179749811,-9.20820393249937" fill="#000000" transform="translate(154.40239636149056 0) rotate(0)" stroke="none"/></g></g><g class="relationship"><g transform="translate(527.7109435422165 580.5961207407668) rotate(180)" stroke-width="5" stroke="#000000"><path d="M 59 0 L 187.81627963729875 0"/><polygon points="-24.8621506177483,0 -27.62461179749811,9.20820393249937 0,0 -27.62461179749811,-9.20820393249937" fill="#000000" transform="translate(212.67843025504703 0) rotate(0)" stroke="none"/></g><g transform="translate(404.3028037235671 580.5961207407668) rotate(360) translate(0 -13)"><g transform="translate(0 0)"><g transform="translate(-39.23828125 0)" fill="#ffffff" stroke="#000000" stroke-width="0"><rect x="0" y="0" width="78.4765625" height="26" rx="5" ry="5" stroke="none"/><text xml:space="preserve" x="5" y="17.5" stroke="none" text-anchor="left" font-family="sans-serif" font-size="16" font-weight="normal" fill="#000000">hasName</text></g></g></g></g><g class="relationship"><g transform="translate(527.7109435422165 580.5961207407668) rotate(35.298086574033384)" stroke-width="5" stroke="#000000"><path d="M 59 0 L 196.73397012301834 0"/><polygon points="-24.8621506177483,0 -27.62461179749811,9.20820393249937 0,0 -27.62461179749811,-9.20820393249937" fill="#000000" transform="translate(221.59612074076665 0) rotate(0)" stroke="none"/></g><g transform="translate(632.0704640862482 654.4815478596515) rotate(35.298086574033384) translate(0 -13)"><g transform="translate(0 0)"><g transform="translate(-55.25 0)" fill="#ffffff" stroke="#000000" stroke-width="0"><rect x="0" y="0" width="110.5" height="26" rx="5" ry="5" stroke="none"/><text xml:space="preserve" x="5" y="17.5" stroke="none" text-anchor="left" font-family="sans-serif" font-size="16" font-weight="normal" fill="#000000">hasNationality</text></g></g></g></g><g class="relationship"><g transform="translate(-724.1354769974232 742.7330806359329) rotate(-8.797306597818863e-15)" stroke-width="5" stroke="#000000"><path d="M 59 0 L 1396.9947264751245 0"/><polygon points="-24.8621506177483,0 -27.62461179749811,9.20820393249937 0,0 -27.62461179749811,-9.20820393249937" fill="#000000" transform="translate(1421.8568770928728 0) rotate(0)" stroke="none"/></g><g transform="translate(3.861886240139029 742.7330806359328) rotate(-8.797306597818863e-15) translate(0 -13)"><g transform="translate(0 0)"><g transform="translate(-55.25 0)" fill="#ffffff" stroke="#000000" stroke-width="0"><rect x="0" y="0" width="110.5" height="26" rx="5" ry="5" stroke="none"/><text xml:space="preserve" x="5" y="17.5" stroke="none" text-anchor="left" font-family="sans-serif" font-size="16" font-weight="normal" fill="#000000">hasNationality</text></g></g></g></g><g class="relationship"><g transform="translate(-724.1354769974232 742.7330806359329) rotate(-179.99999999999994)" stroke-width="5" stroke="#000000"><path d="M 59 0 L 93.95526219294084 0"/><polygon points="-24.8621506177483,0 -27.62461179749811,9.20820393249937 0,0 -27.62461179749811,-9.20820393249937" fill="#000000" transform="translate(118.81741281068912 0) rotate(0)" stroke="none"/></g></g><g class="relationship"><g transform="translate(527.7109435422165 300) rotate(160.5231434976251)" stroke-width="5" stroke="#000000"><path d="M 59 0 L 1243.967673308229 0"/><polygon points="-24.8621506177483,0 -27.62461179749811,9.20820393249937 0,0 -27.62461179749811,-9.20820393249937" fill="#000000" transform="translate(1268.8298239259773 0) rotate(0)" stroke="none"/></g><g transform="translate(-86.49254417847328 517.2216957242197) rotate(340.5231434976251) translate(0 -13)"><g transform="translate(0 0)"><g transform="translate(-39.23046875 0)" fill="#ffffff" stroke="#000000" stroke-width="0"><rect x="0" y="0" width="78.4609375" height="26" rx="5" ry="5" stroke="none"/><text xml:space="preserve" x="5" y="17.5" stroke="none" text-anchor="left" font-family="sans-serif" font-size="16" font-weight="normal" fill="#000000">hasDriver</text></g></g></g></g><g class="relationship"><g transform="translate(-503.65232382339366 299.99999999999994) rotate(179.8674630739121)" stroke-width="5" stroke="#000000"><path d="M 59 0 L 136.62159245154152 0"/><polygon points="-24.8621506177483,0 -27.62461179749811,9.20820393249937 0,0 -27.62461179749811,-9.20820393249937" fill="#000000" transform="translate(161.4837430692898 0) rotate(0)" stroke="none"/></g><g transform="translate(-601.4628583603692 300.22625629355247) rotate(359.86746307391206) translate(0 -13)"><g transform="translate(0 0)"><g transform="translate(-36.125 0)" fill="#ffffff" stroke="#000000" stroke-width="0"><rect x="0" y="0" width="72.25" height="26" rx="5" ry="5" stroke="none"/><text xml:space="preserve" x="5" y="17.5" stroke="none" text-anchor="left" font-family="sans-serif" font-size="16" font-weight="normal" fill="#000000">subclass</text></g></g></g></g><g class="relationship"><g transform="translate(-503.65232382339366 427.80603164215404) rotate(-150.00000000000003)" stroke-width="5" stroke="#000000"><path d="M 59 0 L 170.72986505585857 0"/><polygon points="-24.8621506177483,0 -27.62461179749811,9.20820393249937 0,0 -27.62461179749811,-9.20820393249937" fill="#000000" transform="translate(195.59201567360688 0) rotate(0)" stroke="none"/></g><g transform="translate(-603.1282733965659 370.3735653781894) rotate(29.999999999999993) translate(0 -13)"><g transform="translate(0 0)"><g transform="translate(-36.125 0)" fill="#ffffff" stroke="#000000" stroke-width="0"><rect x="0" y="0" width="72.25" height="26" rx="5" ry="5" stroke="none"/><text xml:space="preserve" x="5" y="17.5" stroke="none" text-anchor="left" font-family="sans-serif" font-size="16" font-weight="normal" fill="#000000">subclass</text></g></g></g></g><g class="relationship"><g transform="translate(-382.5677384987116 161.9536441379558) rotate(157.92014799627498)" stroke-width="5" stroke="#000000"><path d="M 59 0 L 284.73843311708447 0"/><polygon points="-24.8621506177483,0 -27.62461179749811,9.20820393249937 0,0 -27.62461179749811,-9.20820393249937" fill="#000000" transform="translate(309.6005837348328 0) rotate(0)" stroke="none"/></g><g transform="translate(-541.8322166572115 226.55901231543626) rotate(337.9201479962749) translate(0 -13)"><g transform="translate(0 0)"><g transform="translate(-36.125 0)" fill="#ffffff" stroke="#000000" stroke-width="0"><rect x="0" y="0" width="72.25" height="26" rx="5" ry="5" stroke="none"/><text xml:space="preserve" x="5" y="17.5" stroke="none" text-anchor="left" font-family="sans-serif" font-size="16" font-weight="normal" fill="#000000">subclass</text></g></g></g></g><g class="relationship"><g transform="translate(-503.65232382339366 427.80603164215404) rotate(0.0000011461428389329785)" stroke-width="5" stroke="#000000"><path d="M 59 0 L 149.69307818044496 0"/><polygon points="-24.8621506177483,0 -27.62461179749811,9.20820393249937 0,0 -27.62461179749811,-9.20820393249937" fill="#000000" transform="translate(174.55522879819324 0) rotate(0)" stroke="none"/></g><g transform="translate(-399.3057847331712 427.80603372949867) rotate(0.0000011461428389329785) translate(0 -13)"><g transform="translate(0 0)"><g transform="translate(-16.5625 0)" fill="#ffffff" stroke="#000000" stroke-width="0"><rect x="0" y="0" width="33.125" height="26" rx="5" ry="5" stroke="none"/><text xml:space="preserve" x="5" y="17.5" stroke="none" text-anchor="left" font-family="sans-serif" font-size="16" font-weight="normal" fill="#000000">inA</text></g></g></g></g><g class="relationship"><g transform="translate(-382.5677384987116 161.9536441379558) rotate(23.5606723614913)" stroke-width="5" stroke="#000000"><path d="M 59 0 L 261.49553269764976 0"/><polygon points="-24.8621506177483,0 -27.62461179749811,9.20820393249937 0,0 -27.62461179749811,-9.20820393249937" fill="#000000" transform="translate(286.3576833153981 0) rotate(0)" stroke="none"/></g><g transform="translate(-235.67865670524563 226.00787326968475) rotate(23.5606723614913) translate(0 -13)"><g transform="translate(0 0)"><g transform="translate(-16.5625 0)" fill="#ffffff" stroke="#000000" stroke-width="0"><rect x="0" y="0" width="33.125" height="26" rx="5" ry="5" stroke="none"/><text xml:space="preserve" x="5" y="17.5" stroke="none" text-anchor="left" font-family="sans-serif" font-size="16" font-weight="normal" fill="#000000">inA</text></g></g></g></g><g class="relationship"><g transform="translate(-503.65232382339366 299.99999999999994) rotate(2.7889660279306383e-14)" stroke-width="5" stroke="#000000"><path d="M 59 0 L 149.6930781804449 0"/><polygon points="-24.8621506177483,0 -27.62461179749811,9.20820393249937 0,0 -27.62461179749811,-9.20820393249937" fill="#000000" transform="translate(174.55522879819318 0) rotate(0)" stroke="none"/></g><g transform="translate(-399.3057847331712 300) rotate(2.7889660279306383e-14) translate(0 -13)"><g transform="translate(0 0)"><g transform="translate(-16.5625 0)" fill="#ffffff" stroke="#000000" stroke-width="0"><rect x="0" y="0" width="33.125" height="26" rx="5" ry="5" stroke="none"/><text xml:space="preserve" x="5" y="17.5" stroke="none" text-anchor="left" font-family="sans-serif" font-size="16" font-weight="normal" fill="#000000">inA</text></g></g></g></g><g class="relationship"><g transform="translate(-382.5677384987116 -30) rotate(180)" stroke-width="5" stroke="#000000"><path d="M 59 0 L 131.09149352020745 0"/><polygon points="-24.8621506177483,0 -27.62461179749811,9.20820393249937 0,0 -27.62461179749811,-9.20820393249937" fill="#000000" transform="translate(155.95364413795573 0) rotate(0)" stroke="none"/></g></g><g class="relationship"><g transform="translate(-503.65232382339366 427.80603164215404) rotate(90)" stroke-width="5" stroke="#000000"><path d="M 59 0 L 91.92793848086443 0"/><polygon points="-24.8621506177483,0 -27.62461179749811,9.20820393249937 0,0 -27.62461179749811,-9.20820393249937" fill="#000000" transform="translate(116.79008909861273 0) rotate(0)" stroke="none"/></g></g><g class="relationship"><g transform="translate(-724.1354769974232 161.9536441379558) rotate(-90)" stroke-width="5" stroke="#000000"><path d="M 59 0 L 131.0914935202075 0"/><polygon points="-24.8621506177483,0 -27.62461179749811,9.20820393249937 0,0 -27.62461179749811,-9.20820393249937" fill="#000000" transform="translate(155.9536441379558 0) rotate(0)" stroke="none"/></g></g><g class="relationship"><g transform="translate(-382.5677384987116 161.9536441379558) rotate(-90)" stroke-width="5" stroke="#000000"><path d="M 59 0 L 108.09149352020751 0"/><polygon points="-24.8621506177483,0 -27.62461179749811,9.20820393249937 0,0 -27.62461179749811,-9.20820393249937" fill="#000000" transform="translate(132.9536441379558 0) rotate(0)" stroke="none"/></g></g><g class="relationship"><g transform="translate(-382.5677384987116 161.9536441379558) rotate(180)" stroke-width="5" stroke="#000000"><path d="M 59 0 L 257.7055878809633 0"/><polygon points="-24.8621506177483,0 -27.62461179749811,9.20820393249937 0,0 -27.62461179749811,-9.20820393249937" fill="#000000" transform="translate(282.5677384987116 0) rotate(0)" stroke="none"/></g></g><g class="node"><g fill="#ffffff" stroke="#000000" stroke-width="4"><circle cx="-66" cy="-30" r="52"/></g><g transform="translate(-66 -30)"><g transform="scale(0.58203166796875) translate(0 0)"><g transform="translate(0 0)"><g font-family="sans-serif" font-size="50" font-weight="normal" fill="#000000" text-anchor="middle"><text xml:space="preserve" x="0" y="13" stroke="none">Circuit</text></g></g></g></g></g><g class="node"><g fill="#ffffff" stroke="#000000" stroke-width="4"><circle cx="756.7214000954496" cy="-30" r="52"/></g><g transform="translate(756.7214000954496 -30)"><g transform="scale(0.45312554687499995) translate(0 0)"><g transform="translate(0 0)"><g font-family="sans-serif" font-size="50" font-weight="normal" fill="#000000" text-anchor="middle"><text xml:space="preserve" x="0" y="13" stroke="none">Location</text></g></g></g></g></g><g class="node"><g fill="#ffffff" stroke="#000000" stroke-width="4"><circle cx="756.7214000954496" cy="742.7330806359327" r="52"/></g><g transform="translate(756.7214000954496 742.7330806359327)"><g transform="scale(0.484375515625) translate(0 0)"><g transform="translate(0 0)"><g font-family="sans-serif" font-size="50" font-weight="normal" fill="#000000" text-anchor="middle"><text xml:space="preserve" x="0" y="13" stroke="none">Country</text></g></g></g></g></g><g class="node"><g fill="#ffffff" stroke="#000000" stroke-width="1"><circle cx="95.74254917113487" cy="131.74254917113484" r="30.5"/></g><g transform="translate(95.74254917113487 131.74254917113484)"><g transform="scale(0.341797533203125) translate(0 0)"><g transform="translate(0 0)"><g font-family="sans-serif" font-size="50" font-weight="normal" fill="#000000" text-anchor="middle"><text xml:space="preserve" x="0" y="13" stroke="none">Name</text></g></g></g></g></g><g class="node"><g fill="#ffffff" stroke="#000000" stroke-width="4"><circle cx="-66" cy="300" r="52"/></g><g transform="translate(-66 300)"><g transform="scale(0.6835940664062501) translate(0 0)"><g transform="translate(0 0)"><g font-family="sans-serif" font-size="50" font-weight="normal" fill="#000000" text-anchor="middle"><text xml:space="preserve" x="0" y="13" stroke="none">Race</text></g></g></g></g></g><g class="node"><g fill="#ffffff" stroke="#000000" stroke-width="4"><circle cx="-724.1354769974232" cy="742.7330806359329" r="52"/></g><g transform="translate(-724.1354769974232 742.7330806359329)"><g transform="scale(0.6132816367187499) translate(0 0)"><g transform="translate(0 0)"><g font-family="sans-serif" font-size="50" font-weight="normal" fill="#000000" text-anchor="middle"><text xml:space="preserve" x="0" y="13" stroke="none">Driver</text></g></g></g></g></g><g class="node"><g fill="#ffffff" stroke="#000000" stroke-width="4"><circle cx="527.7109435422165" cy="580.5961207407668" r="52"/></g><g transform="translate(527.7109435422165 580.5961207407668)"><g transform="scale(0.37304750195312497) translate(0 0)"><g transform="translate(0 0)"><g font-family="sans-serif" font-size="50" font-weight="normal" fill="#000000" text-anchor="middle"><text xml:space="preserve" x="0" y="13" stroke="none">Contructor</text></g></g></g></g></g><g class="node"><g fill="#ffffff" stroke="#000000" stroke-width="4"><circle cx="527.7109435422165" cy="300" r="52"/></g><g transform="translate(527.7109435422165 300)"><g transform="scale(0.5273442226562499) translate(0 0)"><g transform="translate(0 0)"><g font-family="sans-serif" font-size="50" font-weight="normal" fill="#000000" text-anchor="middle"><text xml:space="preserve" x="0" y="13" stroke="none">LineUp</text></g></g></g></g></g><g class="node"><g fill="#ffffff" stroke="#000000" stroke-width="4"><circle cx="224.74481279157214" cy="299.99999999999994" r="52"/></g><g transform="translate(224.74481279157214 299.99999999999994)"><g transform="scale(0.5000005) translate(0 0)"><g transform="translate(0 0)"><g font-family="sans-serif" font-size="50" font-weight="normal" fill="#000000" text-anchor="middle"><text xml:space="preserve" x="0" y="13" stroke="none">Season</text></g></g></g></g></g><g class="node"><g fill="#ffffff" stroke="#000000" stroke-width="4"><circle cx="-270.0970950252005" cy="427.80603631418495" r="52"/></g><g transform="translate(-270.0970950252005 427.80603631418495)"><g transform="scale(0.31836005664062494) translate(0 0)"><g transform="translate(0 0)"><g font-family="sans-serif" font-size="50" font-weight="normal" fill="#000000" text-anchor="middle"><text xml:space="preserve" x="0" y="13" stroke="none">Qualification</text></g></g></g></g></g><g class="node"><g fill="#ffffff" stroke="#000000" stroke-width="4"><circle cx="-270.0970950252005" cy="300.00000000000006" r="52"/></g><g transform="translate(-270.0970950252005 300.00000000000006)"><g transform="scale(0.6250003749999999) translate(0 0)"><g transform="translate(0 0)"><g font-family="sans-serif" font-size="50" font-weight="normal" fill="#000000" text-anchor="middle"><text xml:space="preserve" x="0" y="13" stroke="none">Sprint</text></g></g></g></g></g><g class="node"><g fill="#ffffff" stroke="#000000" stroke-width="4"><circle cx="-724.1354769974232" cy="300.5100238053506" r="52"/></g><g transform="translate(-724.1354769974232 300.5100238053506)"><g transform="scale(0.30078194921875) translate(0 0)"><g transform="translate(0 0)"><g font-family="sans-serif" font-size="50" font-weight="normal" fill="#000000" text-anchor="middle"><text xml:space="preserve" x="0" y="13" stroke="none">Partecipation</text></g></g></g></g></g><g class="node"><g fill="#ffffff" stroke="#000000" stroke-width="1"><circle cx="527.7109435422165" cy="109.59760363850944" r="30.5"/></g><g transform="translate(527.7109435422165 109.59760363850944)"><g transform="scale(0.32421942578124996) translate(0 0)"><g transform="translate(0 0)"><g font-family="sans-serif" font-size="50" font-weight="normal" fill="#000000" text-anchor="middle"><text xml:space="preserve" x="0" y="13" stroke="none">Result</text></g></g></g></g></g><g class="node"><g fill="#ffffff" stroke="#000000" stroke-width="4"><circle cx="-382.5677384987116" cy="-30" r="52"/></g><g transform="translate(-382.5677384987116 -30)"><g transform="scale(0.56640668359375) translate(0 0)"><g transform="translate(0 0)"><g font-family="sans-serif" font-size="50" font-weight="normal" fill="#000000" text-anchor="middle"><text xml:space="preserve" x="0" y="-17" stroke="none">Pit</text><text xml:space="preserve" x="0" y="43" stroke="none" text-anchor="middle">Stop</text></g></g></g></g></g><g class="node"><g fill="#ffffff" stroke="#000000" stroke-width="1"><circle cx="279.0325132871694" cy="580.5961207407668" r="30.5"/></g><g transform="translate(279.0325132871694 580.5961207407668)"><g transform="scale(0.341797533203125) translate(0 0)"><g transform="translate(0 0)"><g font-family="sans-serif" font-size="50" font-weight="normal" fill="#000000" text-anchor="middle"><text xml:space="preserve" x="0" y="13" stroke="none">Name</text></g></g></g></g></g><g class="node"><g fill="#ffffff" stroke="#000000" stroke-width="1"><circle cx="-878.9528898081123" cy="742.7330806359327" r="30.5"/></g><g transform="translate(-878.9528898081123 742.7330806359327)"><g transform="scale(0.1669930205078125) translate(0 0)"><g transform="translate(0 0)"><g font-family="sans-serif" font-size="50" font-weight="normal" fill="#000000" text-anchor="middle"><text xml:space="preserve" x="0" y="-77" stroke="none">Number</text><text xml:space="preserve" x="0" y="-17" stroke="none" text-anchor="middle">Code Name</text><text xml:space="preserve" x="0" y="43" stroke="none" text-anchor="middle">Surname</text><text xml:space="preserve" x="0" y="103" stroke="none" text-anchor="middle">Birth</text></g></g></g></g></g><g class="node"><g fill="#ffffff" stroke="#000000" stroke-width="4"><circle cx="-724.1354769974232" cy="161.9536441379558" r="52"/></g><g transform="translate(-724.1354769974232 161.9536441379558)"><g transform="scale(0.875000125) translate(0 0)"><g transform="translate(0 0)"><g font-family="sans-serif" font-size="50" font-weight="normal" fill="#000000" text-anchor="middle"><text xml:space="preserve" x="0" y="13" stroke="none">Lap</text></g></g></g></g></g><g class="node"><g fill="#ffffff" stroke="#000000" stroke-width="4"><circle cx="-503.65232382339366" cy="299.99999999999994" r="52"/></g><g transform="translate(-503.65232382339366 299.99999999999994)"><g transform="scale(0.306641318359375) translate(0 0)"><g transform="translate(0 0)"><g font-family="sans-serif" font-size="50" font-weight="normal" fill="#000000" text-anchor="middle"><text xml:space="preserve" x="0" y="-47" stroke="none">Sprint</text><text xml:space="preserve" x="0" y="13" stroke="none" text-anchor="middle">partecipation</text></g></g></g></g></g><g class="node"><g fill="#ffffff" stroke="#000000" stroke-width="4"><circle cx="-503.65232382339366" cy="427.80603164215404" r="52"/></g><g transform="translate(-503.65232382339366 427.80603164215404)"><g transform="scale(0.306641318359375) translate(0 0)"><g transform="translate(0 0)"><g font-family="sans-serif" font-size="50" font-weight="normal" fill="#000000" text-anchor="middle"><text xml:space="preserve" x="0" y="-47" stroke="none">Qualif.</text><text xml:space="preserve" x="0" y="13" stroke="none" text-anchor="middle">partecipation</text></g></g></g></g></g><g class="node"><g fill="#ffffff" stroke="#000000" stroke-width="4"><circle cx="-382.5677384987116" cy="161.9536441379558" r="52"/></g><g transform="translate(-382.5677384987116 161.9536441379558)"><g transform="scale(0.306641318359375) translate(0 0)"><g transform="translate(0 0)"><g font-family="sans-serif" font-size="50" font-weight="normal" fill="#000000" text-anchor="middle"><text xml:space="preserve" x="0" y="-47" stroke="none">Race</text><text xml:space="preserve" x="0" y="13" stroke="none" text-anchor="middle">partecipation</text></g></g></g></g></g><g class="node"><g fill="#ffffff" stroke="#000000" stroke-width="1"><circle cx="-574.5213826366673" cy="-30" r="30.5"/></g><g transform="translate(-574.5213826366673 -30)"><g transform="scale(0.23632888867187501) translate(0 0)"><g transform="translate(0 0)"><g font-family="sans-serif" font-size="50" font-weight="normal" fill="#000000" text-anchor="middle"><text xml:space="preserve" x="0" y="-47" stroke="none">Time</text><text xml:space="preserve" x="0" y="13" stroke="none" text-anchor="middle">Duration</text><text xml:space="preserve" x="0" y="73" stroke="none" text-anchor="middle">Lap</text></g></g></g></g></g><g class="node"><g fill="#ffffff" stroke="#000000" stroke-width="1"><circle cx="-503.65232382339366" cy="580.5961207407668" r="30.5"/></g><g transform="translate(-503.65232382339366 580.5961207407668)"><g transform="scale(0.19921955078124998) translate(0 0)"><g transform="translate(0 0)"><g font-family="sans-serif" font-size="50" font-weight="normal" fill="#000000" text-anchor="middle"><text xml:space="preserve" x="0" y="-17" stroke="none">Position</text><text xml:space="preserve" x="0" y="43" stroke="none" text-anchor="middle">Q1 Q2</text><text xml:space="preserve" x="0" y="103" stroke="none" text-anchor="middle">Q3</text></g></g></g></g></g><g class="node"><g fill="#ffffff" stroke="#000000" stroke-width="1"><circle cx="-724.1354769974232" cy="-30" r="30.5"/></g><g transform="translate(-724.1354769974232 -30)"><g transform="scale(0.23632888867187501) translate(0 0)"><g transform="translate(0 0)"><g font-family="sans-serif" font-size="50" font-weight="normal" fill="#000000" text-anchor="middle"><text xml:space="preserve" x="0" y="13" stroke="none">Position</text><text xml:space="preserve" x="0" y="73" stroke="none" text-anchor="middle">Time</text></g></g></g></g></g></g></svg>